<?xml version="1.0" encoding="utf-8"?>
<svg xmlns="http://www.w3.org/2000/svg" xmlns:xlink="http://www.w3.org/1999/xlink" width="600" height="400" viewBox="0 0 600 400">
<defs>
  <clipPath id="clip8400">
    <rect x="0" y="0" width="600" height="400"/>
  </clipPath>
</defs>
<polygon clip-path="url(#clip8400)" points="
0,400 600,400 600,0 0,0 
  " fill="#ffffff" fill-opacity="1"/>
<defs>
  <clipPath id="clip8401">
    <rect x="120" y="0" width="421" height="400"/>
  </clipPath>
</defs>
<polygon clip-path="url(#clip8400)" points="
38.8117,375.813 283.61,375.813 283.61,31.4961 38.8117,31.4961 
  " fill="#ffffff" fill-opacity="1"/>
<defs>
  <clipPath id="clip8402">
    <rect x="38" y="31" width="246" height="345"/>
  </clipPath>
</defs>
<polyline clip-path="url(#clip8402)" style="stroke:#000000; stroke-width:0.5; stroke-opacity:0.1; fill:none" points="
  72.577,375.813 72.577,31.4961 
  "/>
<polyline clip-path="url(#clip8402)" style="stroke:#000000; stroke-width:0.5; stroke-opacity:0.1; fill:none" points="
  114.784,375.813 114.784,31.4961 
  "/>
<polyline clip-path="url(#clip8402)" style="stroke:#000000; stroke-width:0.5; stroke-opacity:0.1; fill:none" points="
  156.99,375.813 156.99,31.4961 
  "/>
<polyline clip-path="url(#clip8402)" style="stroke:#000000; stroke-width:0.5; stroke-opacity:0.1; fill:none" points="
  199.197,375.813 199.197,31.4961 
  "/>
<polyline clip-path="url(#clip8402)" style="stroke:#000000; stroke-width:0.5; stroke-opacity:0.1; fill:none" points="
  241.403,375.813 241.403,31.4961 
  "/>
<polyline clip-path="url(#clip8402)" style="stroke:#000000; stroke-width:0.5; stroke-opacity:0.1; fill:none" points="
  283.61,375.813 283.61,31.4961 
  "/>
<polyline clip-path="url(#clip8402)" style="stroke:#000000; stroke-width:0.5; stroke-opacity:0.1; fill:none" points="
  38.8117,340.284 283.61,340.284 
  "/>
<polyline clip-path="url(#clip8402)" style="stroke:#000000; stroke-width:0.5; stroke-opacity:0.1; fill:none" points="
  38.8117,295.899 283.61,295.899 
  "/>
<polyline clip-path="url(#clip8402)" style="stroke:#000000; stroke-width:0.5; stroke-opacity:0.1; fill:none" points="
  38.8117,251.514 283.61,251.514 
  "/>
<polyline clip-path="url(#clip8402)" style="stroke:#000000; stroke-width:0.5; stroke-opacity:0.1; fill:none" points="
  38.8117,207.13 283.61,207.13 
  "/>
<polyline clip-path="url(#clip8402)" style="stroke:#000000; stroke-width:0.5; stroke-opacity:0.1; fill:none" points="
  38.8117,162.745 283.61,162.745 
  "/>
<polyline clip-path="url(#clip8402)" style="stroke:#000000; stroke-width:0.5; stroke-opacity:0.1; fill:none" points="
  38.8117,118.36 283.61,118.36 
  "/>
<polyline clip-path="url(#clip8402)" style="stroke:#000000; stroke-width:0.5; stroke-opacity:0.1; fill:none" points="
  38.8117,73.9752 283.61,73.9752 
  "/>
<polyline clip-path="url(#clip8400)" style="stroke:#000000; stroke-width:1; stroke-opacity:1; fill:none" points="
  38.8117,375.813 283.61,375.813 
  "/>
<polyline clip-path="url(#clip8400)" style="stroke:#000000; stroke-width:1; stroke-opacity:1; fill:none" points="
  38.8117,375.813 38.8117,31.4961 
  "/>
<polyline clip-path="url(#clip8400)" style="stroke:#000000; stroke-width:1; stroke-opacity:1; fill:none" points="
  72.577,375.813 72.577,370.649 
  "/>
<polyline clip-path="url(#clip8400)" style="stroke:#000000; stroke-width:1; stroke-opacity:1; fill:none" points="
  114.784,375.813 114.784,370.649 
  "/>
<polyline clip-path="url(#clip8400)" style="stroke:#000000; stroke-width:1; stroke-opacity:1; fill:none" points="
  156.99,375.813 156.99,370.649 
  "/>
<polyline clip-path="url(#clip8400)" style="stroke:#000000; stroke-width:1; stroke-opacity:1; fill:none" points="
  199.197,375.813 199.197,370.649 
  "/>
<polyline clip-path="url(#clip8400)" style="stroke:#000000; stroke-width:1; stroke-opacity:1; fill:none" points="
  241.403,375.813 241.403,370.649 
  "/>
<polyline clip-path="url(#clip8400)" style="stroke:#000000; stroke-width:1; stroke-opacity:1; fill:none" points="
  283.61,375.813 283.61,370.649 
  "/>
<polyline clip-path="url(#clip8400)" style="stroke:#000000; stroke-width:1; stroke-opacity:1; fill:none" points="
  38.8117,340.284 42.4837,340.284 
  "/>
<polyline clip-path="url(#clip8400)" style="stroke:#000000; stroke-width:1; stroke-opacity:1; fill:none" points="
  38.8117,295.899 42.4837,295.899 
  "/>
<polyline clip-path="url(#clip8400)" style="stroke:#000000; stroke-width:1; stroke-opacity:1; fill:none" points="
  38.8117,251.514 42.4837,251.514 
  "/>
<polyline clip-path="url(#clip8400)" style="stroke:#000000; stroke-width:1; stroke-opacity:1; fill:none" points="
  38.8117,207.13 42.4837,207.13 
  "/>
<polyline clip-path="url(#clip8400)" style="stroke:#000000; stroke-width:1; stroke-opacity:1; fill:none" points="
  38.8117,162.745 42.4837,162.745 
  "/>
<polyline clip-path="url(#clip8400)" style="stroke:#000000; stroke-width:1; stroke-opacity:1; fill:none" points="
  38.8117,118.36 42.4837,118.36 
  "/>
<polyline clip-path="url(#clip8400)" style="stroke:#000000; stroke-width:1; stroke-opacity:1; fill:none" points="
  38.8117,73.9752 42.4837,73.9752 
  "/>
<g clip-path="url(#clip8400)">
<text style="fill:#000000; fill-opacity:1; font-family:Arial,Helvetica Neue,Helvetica,sans-serif; font-size:12; text-anchor:middle;" transform="rotate(0, 72.577, 389.613)" x="72.577" y="389.613">0.5</text>
</g>
<g clip-path="url(#clip8400)">
<text style="fill:#000000; fill-opacity:1; font-family:Arial,Helvetica Neue,Helvetica,sans-serif; font-size:12; text-anchor:middle;" transform="rotate(0, 114.784, 389.613)" x="114.784" y="389.613">1.0</text>
</g>
<g clip-path="url(#clip8400)">
<text style="fill:#000000; fill-opacity:1; font-family:Arial,Helvetica Neue,Helvetica,sans-serif; font-size:12; text-anchor:middle;" transform="rotate(0, 156.99, 389.613)" x="156.99" y="389.613">1.5</text>
</g>
<g clip-path="url(#clip8400)">
<text style="fill:#000000; fill-opacity:1; font-family:Arial,Helvetica Neue,Helvetica,sans-serif; font-size:12; text-anchor:middle;" transform="rotate(0, 199.197, 389.613)" x="199.197" y="389.613">2.0</text>
</g>
<g clip-path="url(#clip8400)">
<text style="fill:#000000; fill-opacity:1; font-family:Arial,Helvetica Neue,Helvetica,sans-serif; font-size:12; text-anchor:middle;" transform="rotate(0, 241.403, 389.613)" x="241.403" y="389.613">2.5</text>
</g>
<g clip-path="url(#clip8400)">
<text style="fill:#000000; fill-opacity:1; font-family:Arial,Helvetica Neue,Helvetica,sans-serif; font-size:12; text-anchor:middle;" transform="rotate(0, 283.61, 389.613)" x="283.61" y="389.613">3.0</text>
</g>
<g clip-path="url(#clip8400)">
<text style="fill:#000000; fill-opacity:1; font-family:Arial,Helvetica Neue,Helvetica,sans-serif; font-size:12; text-anchor:end;" transform="rotate(0, 32.8117, 344.784)" x="32.8117" y="344.784">0.05</text>
</g>
<g clip-path="url(#clip8400)">
<text style="fill:#000000; fill-opacity:1; font-family:Arial,Helvetica Neue,Helvetica,sans-serif; font-size:12; text-anchor:end;" transform="rotate(0, 32.8117, 300.399)" x="32.8117" y="300.399">0.10</text>
</g>
<g clip-path="url(#clip8400)">
<text style="fill:#000000; fill-opacity:1; font-family:Arial,Helvetica Neue,Helvetica,sans-serif; font-size:12; text-anchor:end;" transform="rotate(0, 32.8117, 256.014)" x="32.8117" y="256.014">0.15</text>
</g>
<g clip-path="url(#clip8400)">
<text style="fill:#000000; fill-opacity:1; font-family:Arial,Helvetica Neue,Helvetica,sans-serif; font-size:12; text-anchor:end;" transform="rotate(0, 32.8117, 211.63)" x="32.8117" y="211.63">0.20</text>
</g>
<g clip-path="url(#clip8400)">
<text style="fill:#000000; fill-opacity:1; font-family:Arial,Helvetica Neue,Helvetica,sans-serif; font-size:12; text-anchor:end;" transform="rotate(0, 32.8117, 167.245)" x="32.8117" y="167.245">0.25</text>
</g>
<g clip-path="url(#clip8400)">
<text style="fill:#000000; fill-opacity:1; font-family:Arial,Helvetica Neue,Helvetica,sans-serif; font-size:12; text-anchor:end;" transform="rotate(0, 32.8117, 122.86)" x="32.8117" y="122.86">0.30</text>
</g>
<g clip-path="url(#clip8400)">
<text style="fill:#000000; fill-opacity:1; font-family:Arial,Helvetica Neue,Helvetica,sans-serif; font-size:12; text-anchor:end;" transform="rotate(0, 32.8117, 78.4752)" x="32.8117" y="78.4752">0.35</text>
</g>
<g clip-path="url(#clip8400)">
<text style="fill:#000000; fill-opacity:1; font-family:Arial,Helvetica Neue,Helvetica,sans-serif; font-size:21; text-anchor:middle;" transform="rotate(0, 161.211, 18)" x="161.211" y="18">residual function</text>
</g>
<polyline clip-path="url(#clip8402)" style="stroke:#009af9; stroke-width:1; stroke-opacity:1; fill:none" points="
  38.8117,375.813 39.3013,374.761 39.7909,373.65 40.2805,372.482 40.7701,371.257 41.2597,369.974 41.7493,368.636 42.2389,367.241 42.7285,365.791 43.2181,364.285 
  43.7077,362.725 44.1973,361.112 44.6869,359.445 45.1765,357.725 45.6661,355.954 46.1557,354.133 46.6453,352.261 47.1349,350.34 47.6245,348.371 48.1141,346.354 
  48.6037,344.291 49.0933,342.183 49.5828,340.031 50.0724,337.836 50.562,335.599 51.0516,333.321 51.5412,331.003 52.0308,328.648 52.5204,326.255 53.01,323.827 
  53.4996,321.364 53.9892,318.869 54.4788,316.341 54.9684,313.783 55.458,311.197 55.9476,308.583 56.4372,305.943 56.9268,303.278 57.4164,300.59 57.906,297.88 
  58.3956,295.149 58.8852,292.4 59.3748,289.633 59.8644,286.849 60.354,284.051 60.8436,281.239 61.3332,278.415 61.8228,275.58 62.3123,272.736 62.8019,269.884 
  63.2915,267.024 63.7811,264.159 64.2707,261.289 64.7603,258.416 65.2499,255.541 65.7395,252.665 66.2291,249.789 66.7187,246.914 67.2083,244.042 67.6979,241.173 
  68.1875,238.309 68.6771,235.449 69.1667,232.597 69.6563,229.751 70.1459,226.913 70.6355,224.085 71.1251,221.266 71.6147,218.457 72.1043,215.66 72.5939,212.876 
  73.0835,210.104 73.5731,207.345 74.0627,204.601 74.5522,201.872 75.0418,199.158 75.5314,196.46 76.021,193.778 76.5106,191.114 77.0002,188.468 77.4898,185.839 
  77.9794,183.229 78.469,180.638 78.9586,178.067 79.4482,175.515 79.9378,172.984 80.4274,170.473 80.917,167.983 81.4066,165.515 81.8962,163.068 82.3858,160.642 
  82.8754,158.239 83.365,155.858 83.8546,153.5 84.3442,151.165 84.8338,148.853 85.3234,146.563 85.813,144.298 86.3026,142.055 86.7922,139.837 87.2817,137.642 
  87.7713,135.472 88.2609,133.325 88.7505,131.203 89.2401,129.104 89.7297,127.031 90.2193,124.981 90.7089,122.956 91.1985,120.956 91.6881,118.98 92.1777,117.029 
  92.6673,115.102 93.1569,113.2 93.6465,111.323 94.1361,109.47 94.6257,107.643 95.1153,105.839 95.6049,104.061 96.0945,102.306 96.5841,100.577 97.0737,98.8719 
  97.5633,97.1914 98.0529,95.5353 98.5425,93.9036 99.0321,92.2962 99.5216,90.713 100.011,89.154 100.501,87.6192 100.99,86.1083 101.48,84.6214 101.97,83.1583 
  102.459,81.719 102.949,80.3033 103.438,78.9113 103.928,77.5426 104.418,76.1974 104.907,74.8753 105.397,73.5765 105.886,72.3006 106.376,71.0476 106.866,69.8174 
  107.355,68.6099 107.845,67.4249 108.334,66.2623 108.824,65.122 109.314,64.0038 109.803,62.9076 110.293,61.8333 110.782,60.7807 111.272,59.7497 111.762,58.7401 
  112.251,57.7519 112.741,56.7848 113.23,55.8387 113.72,54.9134 114.21,54.0089 114.699,53.125 115.189,52.2614 115.678,51.4181 116.168,50.5949 116.658,49.7917 
  117.147,49.0082 117.637,48.2444 118.126,47.5001 118.616,46.775 119.105,46.0691 119.595,45.3823 120.085,44.7142 120.574,44.0648 121.064,43.434 121.553,42.8215 
  122.043,42.2271 122.533,41.6509 123.022,41.0924 123.512,40.5517 124.001,40.0285 124.491,39.5227 124.981,39.034 125.47,38.5625 125.96,38.1078 126.449,37.6698 
  126.939,37.2483 127.429,36.8433 127.918,36.4545 128.408,36.0817 128.897,35.7248 129.387,35.3837 129.877,35.0581 130.366,34.748 130.856,34.453 131.345,34.1732 
  131.835,33.9083 132.325,33.6581 132.814,33.4225 133.304,33.2013 133.793,32.9945 134.283,32.8017 134.773,32.6229 135.262,32.4578 135.752,32.3064 136.241,32.1685 
  136.731,32.0439 137.221,31.9325 137.71,31.834 138.2,31.7484 138.689,31.6755 139.179,31.6152 139.669,31.5672 140.158,31.5315 140.648,31.5078 141.137,31.4961 
  141.627,31.4961 142.117,31.5078 142.606,31.5309 143.096,31.5654 143.585,31.611 144.075,31.6677 144.564,31.7353 145.054,31.8136 145.544,31.9026 146.033,32.0019 
  146.523,32.1116 147.012,32.2315 147.502,32.3614 147.992,32.5012 148.481,32.6507 148.971,32.8099 149.46,32.9785 149.95,33.1565 150.44,33.3437 150.929,33.54 
  151.419,33.7452 151.908,33.9592 152.398,34.1819 152.888,34.4131 153.377,34.6528 153.867,34.9007 154.356,35.1568 154.846,35.421 155.336,35.6931 155.825,35.9729 
  156.315,36.2604 156.804,36.5555 157.294,36.858 157.784,37.1678 158.273,37.4848 158.763,37.8088 159.252,38.1398 159.742,38.4777 160.232,38.8222 160.721,39.1734 
  161.211,39.5311 161.7,39.8951 162.19,40.2654 162.68,40.6419 163.169,41.0245 163.659,41.413 164.148,41.8073 164.638,42.2074 165.128,42.6131 165.617,43.0244 
  166.107,43.441 166.596,43.8631 167.086,44.2903 167.576,44.7227 168.065,45.1601 168.555,45.6024 169.044,46.0496 169.534,46.5015 170.023,46.9581 170.513,47.4193 
  171.003,47.8849 171.492,48.3549 171.982,48.8291 172.471,49.3076 172.961,49.7902 173.451,50.2769 173.94,50.7674 174.43,51.2619 174.919,51.7601 175.409,52.262 
  175.899,52.7675 176.388,53.2765 176.878,53.789 177.367,54.3049 177.857,54.824 178.347,55.3464 178.836,55.8719 179.326,56.4005 179.815,56.9321 180.305,57.4666 
  180.795,58.0039 181.284,58.5441 181.774,59.0869 182.263,59.6324 182.753,60.1804 183.243,60.731 183.732,61.284 184.222,61.8393 184.711,62.397 185.201,62.9569 
  185.691,63.5189 186.18,64.0831 186.67,64.6494 187.159,65.2176 187.649,65.7878 188.139,66.3599 188.628,66.9337 189.118,67.5094 189.607,68.0867 190.097,68.6657 
  190.587,69.2462 191.076,69.8283 191.566,70.4119 192.055,70.9969 192.545,71.5833 193.035,72.1711 193.524,72.7601 194.014,73.3503 194.503,73.9417 194.993,74.5343 
  195.482,75.1279 195.972,75.7226 196.462,76.3182 196.951,76.9148 197.441,77.5123 197.93,78.1107 198.42,78.7098 198.91,79.3098 199.399,79.9104 199.889,80.5118 
  200.378,81.1138 200.868,81.7164 201.358,82.3195 201.847,82.9232 202.337,83.5274 202.826,84.132 203.316,84.7371 203.806,85.3425 204.295,85.9482 204.785,86.5543 
  205.274,87.1606 205.764,87.7672 206.254,88.374 206.743,88.9809 207.233,89.588 207.722,90.1952 208.212,90.8025 208.702,91.4098 209.191,92.0171 209.681,92.6244 
  210.17,93.2317 210.66,93.8389 211.15,94.446 211.639,95.0529 212.129,95.6597 212.618,96.2663 213.108,96.8727 213.598,97.4789 214.087,98.0848 214.577,98.6904 
  215.066,99.2957 215.556,99.9007 216.046,100.505 216.535,101.109 217.025,101.713 217.514,102.317 218.004,102.92 218.493,103.522 218.983,104.124 219.473,104.725 
  219.962,105.326 220.452,105.927 220.941,106.527 221.431,107.126 221.921,107.724 222.41,108.322 222.9,108.92 223.389,109.516 223.879,110.112 224.369,110.707 
  224.858,111.302 225.348,111.896 225.837,112.489 226.327,113.081 226.817,113.672 227.306,114.263 227.796,114.853 228.285,115.442 228.775,116.03 229.265,116.618 
  229.754,117.204 230.244,117.79 230.733,118.374 231.223,118.958 231.713,119.541 232.202,120.123 232.692,120.704 233.181,121.284 233.671,121.863 234.161,122.441 
  234.65,123.019 235.14,123.595 235.629,124.17 236.119,124.744 236.609,125.317 237.098,125.889 237.588,126.46 238.077,127.03 238.567,127.599 239.057,128.167 
  239.546,128.733 240.036,129.299 240.525,129.863 241.015,130.427 241.505,130.989 241.994,131.55 242.484,132.11 242.973,132.669 243.463,133.227 243.952,133.784 
  244.442,134.339 244.932,134.893 245.421,135.446 245.911,135.998 246.4,136.549 246.89,137.099 247.38,137.647 247.869,138.194 248.359,138.74 248.848,139.285 
  249.338,139.829 249.828,140.371 250.317,140.912 250.807,141.452 251.296,141.991 251.786,142.528 252.276,143.065 252.765,143.6 253.255,144.133 253.744,144.666 
  254.234,145.197 254.724,145.727 255.213,146.256 255.703,146.783 256.192,147.31 256.682,147.835 257.172,148.358 257.661,148.881 258.151,149.402 258.64,149.922 
  259.13,150.441 259.62,150.958 260.109,151.474 260.599,151.989 261.088,152.502 261.578,153.014 262.068,153.525 262.557,154.035 263.047,154.543 263.536,155.051 
  264.026,155.556 264.516,156.061 265.005,156.564 265.495,157.066 265.984,157.567 266.474,158.066 266.964,158.564 267.453,159.061 267.943,159.556 268.432,160.05 
  268.922,160.543 269.411,161.035 269.901,161.525 270.391,162.014 270.88,162.502 271.37,162.988 271.859,163.473 272.349,163.957 272.839,164.44 273.328,164.921 
  273.818,165.401 274.307,165.88 274.797,166.357 275.287,166.833 275.776,167.308 276.266,167.781 276.755,168.254 277.245,168.725 277.735,169.194 278.224,169.663 
  278.714,170.13 279.203,170.596 279.693,171.06 280.183,171.523 280.672,171.985 281.162,172.446 281.651,172.905 282.141,173.364 282.631,173.821 283.12,174.276 
  283.61,174.731 
  "/>
<polygon clip-path="url(#clip8400)" points="
193.094,82.6161 265.61,82.6161 265.61,52.3761 193.094,52.3761 
  " fill="#ffffff" fill-opacity="1"/>
<polyline clip-path="url(#clip8400)" style="stroke:#000000; stroke-width:1; stroke-opacity:1; fill:none" points="
  193.094,82.6161 265.61,82.6161 265.61,52.3761 193.094,52.3761 193.094,82.6161 
  "/>
<polyline clip-path="url(#clip8400)" style="stroke:#009af9; stroke-width:1; stroke-opacity:1; fill:none" points="
  199.094,67.4961 235.094,67.4961 
  "/>
<g clip-path="url(#clip8400)">
<text style="fill:#000000; fill-opacity:1; font-family:Arial,Helvetica Neue,Helvetica,sans-serif; font-size:12; text-anchor:start;" transform="rotate(0, 241.094, 71.9961)" x="241.094" y="71.9961">y1</text>
</g>
<polygon clip-path="url(#clip8400)" points="
335.517,375.813 580.315,375.813 580.315,31.4961 335.517,31.4961 
  " fill="#ffffff" fill-opacity="1"/>
<defs>
  <clipPath id="clip8403">
    <rect x="335" y="31" width="246" height="345"/>
  </clipPath>
</defs>
<polyline clip-path="url(#clip8403)" style="stroke:#000000; stroke-width:0.5; stroke-opacity:0.1; fill:none" points="
  374.158,375.813 374.158,31.4961 
  "/>
<polyline clip-path="url(#clip8403)" style="stroke:#000000; stroke-width:0.5; stroke-opacity:0.1; fill:none" points="
  412.876,375.813 412.876,31.4961 
  "/>
<polyline clip-path="url(#clip8403)" style="stroke:#000000; stroke-width:0.5; stroke-opacity:0.1; fill:none" points="
  451.594,375.813 451.594,31.4961 
  "/>
<polyline clip-path="url(#clip8403)" style="stroke:#000000; stroke-width:0.5; stroke-opacity:0.1; fill:none" points="
  490.312,375.813 490.312,31.4961 
  "/>
<polyline clip-path="url(#clip8403)" style="stroke:#000000; stroke-width:0.5; stroke-opacity:0.1; fill:none" points="
  529.031,375.813 529.031,31.4961 
  "/>
<polyline clip-path="url(#clip8403)" style="stroke:#000000; stroke-width:0.5; stroke-opacity:0.1; fill:none" points="
  567.749,375.813 567.749,31.4961 
  "/>
<polyline clip-path="url(#clip8403)" style="stroke:#000000; stroke-width:0.5; stroke-opacity:0.1; fill:none" points="
  335.517,328.321 580.315,328.321 
  "/>
<polyline clip-path="url(#clip8403)" style="stroke:#000000; stroke-width:0.5; stroke-opacity:0.1; fill:none" points="
  335.517,268.956 580.315,268.956 
  "/>
<polyline clip-path="url(#clip8403)" style="stroke:#000000; stroke-width:0.5; stroke-opacity:0.1; fill:none" points="
  335.517,209.591 580.315,209.591 
  "/>
<polyline clip-path="url(#clip8403)" style="stroke:#000000; stroke-width:0.5; stroke-opacity:0.1; fill:none" points="
  335.517,150.226 580.315,150.226 
  "/>
<polyline clip-path="url(#clip8403)" style="stroke:#000000; stroke-width:0.5; stroke-opacity:0.1; fill:none" points="
  335.517,90.8611 580.315,90.8611 
  "/>
<polyline clip-path="url(#clip8403)" style="stroke:#000000; stroke-width:0.5; stroke-opacity:0.1; fill:none" points="
  335.517,31.4961 580.315,31.4961 
  "/>
<polyline clip-path="url(#clip8400)" style="stroke:#000000; stroke-width:1; stroke-opacity:1; fill:none" points="
  335.517,375.813 580.315,375.813 
  "/>
<polyline clip-path="url(#clip8400)" style="stroke:#000000; stroke-width:1; stroke-opacity:1; fill:none" points="
  335.517,375.813 335.517,31.4961 
  "/>
<polyline clip-path="url(#clip8400)" style="stroke:#000000; stroke-width:1; stroke-opacity:1; fill:none" points="
  374.158,375.813 374.158,370.649 
  "/>
<polyline clip-path="url(#clip8400)" style="stroke:#000000; stroke-width:1; stroke-opacity:1; fill:none" points="
  412.876,375.813 412.876,370.649 
  "/>
<polyline clip-path="url(#clip8400)" style="stroke:#000000; stroke-width:1; stroke-opacity:1; fill:none" points="
  451.594,375.813 451.594,370.649 
  "/>
<polyline clip-path="url(#clip8400)" style="stroke:#000000; stroke-width:1; stroke-opacity:1; fill:none" points="
  490.312,375.813 490.312,370.649 
  "/>
<polyline clip-path="url(#clip8400)" style="stroke:#000000; stroke-width:1; stroke-opacity:1; fill:none" points="
  529.031,375.813 529.031,370.649 
  "/>
<polyline clip-path="url(#clip8400)" style="stroke:#000000; stroke-width:1; stroke-opacity:1; fill:none" points="
  567.749,375.813 567.749,370.649 
  "/>
<polyline clip-path="url(#clip8400)" style="stroke:#000000; stroke-width:1; stroke-opacity:1; fill:none" points="
  335.517,328.321 339.189,328.321 
  "/>
<polyline clip-path="url(#clip8400)" style="stroke:#000000; stroke-width:1; stroke-opacity:1; fill:none" points="
  335.517,268.956 339.189,268.956 
  "/>
<polyline clip-path="url(#clip8400)" style="stroke:#000000; stroke-width:1; stroke-opacity:1; fill:none" points="
  335.517,209.591 339.189,209.591 
  "/>
<polyline clip-path="url(#clip8400)" style="stroke:#000000; stroke-width:1; stroke-opacity:1; fill:none" points="
  335.517,150.226 339.189,150.226 
  "/>
<polyline clip-path="url(#clip8400)" style="stroke:#000000; stroke-width:1; stroke-opacity:1; fill:none" points="
  335.517,90.8611 339.189,90.8611 
  "/>
<polyline clip-path="url(#clip8400)" style="stroke:#000000; stroke-width:1; stroke-opacity:1; fill:none" points="
  335.517,31.4961 339.189,31.4961 
  "/>
<g clip-path="url(#clip8400)">
<text style="fill:#000000; fill-opacity:1; font-family:Arial,Helvetica Neue,Helvetica,sans-serif; font-size:12; text-anchor:middle;" transform="rotate(0, 374.158, 389.613)" x="374.158" y="389.613">5</text>
</g>
<g clip-path="url(#clip8400)">
<text style="fill:#000000; fill-opacity:1; font-family:Arial,Helvetica Neue,Helvetica,sans-serif; font-size:12; text-anchor:middle;" transform="rotate(0, 412.876, 389.613)" x="412.876" y="389.613">10</text>
</g>
<g clip-path="url(#clip8400)">
<text style="fill:#000000; fill-opacity:1; font-family:Arial,Helvetica Neue,Helvetica,sans-serif; font-size:12; text-anchor:middle;" transform="rotate(0, 451.594, 389.613)" x="451.594" y="389.613">15</text>
</g>
<g clip-path="url(#clip8400)">
<text style="fill:#000000; fill-opacity:1; font-family:Arial,Helvetica Neue,Helvetica,sans-serif; font-size:12; text-anchor:middle;" transform="rotate(0, 490.312, 389.613)" x="490.312" y="389.613">20</text>
</g>
<g clip-path="url(#clip8400)">
<text style="fill:#000000; fill-opacity:1; font-family:Arial,Helvetica Neue,Helvetica,sans-serif; font-size:12; text-anchor:middle;" transform="rotate(0, 529.031, 389.613)" x="529.031" y="389.613">25</text>
</g>
<g clip-path="url(#clip8400)">
<text style="fill:#000000; fill-opacity:1; font-family:Arial,Helvetica Neue,Helvetica,sans-serif; font-size:12; text-anchor:middle;" transform="rotate(0, 567.749, 389.613)" x="567.749" y="389.613">30</text>
</g>
<g clip-path="url(#clip8400)">
<text style="fill:#000000; fill-opacity:1; font-family:Arial,Helvetica Neue,Helvetica,sans-serif; font-size:12; text-anchor:end;" transform="rotate(0, 329.517, 332.821)" x="329.517" y="332.821">0.5</text>
</g>
<g clip-path="url(#clip8400)">
<text style="fill:#000000; fill-opacity:1; font-family:Arial,Helvetica Neue,Helvetica,sans-serif; font-size:12; text-anchor:end;" transform="rotate(0, 329.517, 273.456)" x="329.517" y="273.456">1.0</text>
</g>
<g clip-path="url(#clip8400)">
<text style="fill:#000000; fill-opacity:1; font-family:Arial,Helvetica Neue,Helvetica,sans-serif; font-size:12; text-anchor:end;" transform="rotate(0, 329.517, 214.091)" x="329.517" y="214.091">1.5</text>
</g>
<g clip-path="url(#clip8400)">
<text style="fill:#000000; fill-opacity:1; font-family:Arial,Helvetica Neue,Helvetica,sans-serif; font-size:12; text-anchor:end;" transform="rotate(0, 329.517, 154.726)" x="329.517" y="154.726">2.0</text>
</g>
<g clip-path="url(#clip8400)">
<text style="fill:#000000; fill-opacity:1; font-family:Arial,Helvetica Neue,Helvetica,sans-serif; font-size:12; text-anchor:end;" transform="rotate(0, 329.517, 95.3611)" x="329.517" y="95.3611">2.5</text>
</g>
<g clip-path="url(#clip8400)">
<text style="fill:#000000; fill-opacity:1; font-family:Arial,Helvetica Neue,Helvetica,sans-serif; font-size:12; text-anchor:end;" transform="rotate(0, 329.517, 35.9961)" x="329.517" y="35.9961">3.0</text>
</g>
<polyline clip-path="url(#clip8403)" style="stroke:#009af9; stroke-width:1; stroke-opacity:1; fill:none" points="
  335.517,375.813 335.526,375.125 335.536,374.436 335.546,373.748 335.557,373.059 335.568,372.37 335.58,371.682 335.592,370.993 335.604,370.304 335.617,369.616 
  335.631,368.927 335.645,368.238 335.66,367.55 335.675,366.861 335.69,366.173 335.706,365.484 335.722,364.795 335.739,364.107 335.756,363.418 335.774,362.729 
  335.792,362.041 335.81,361.352 335.829,360.663 335.848,359.975 335.868,359.286 335.888,358.598 335.908,357.909 335.928,357.22 335.949,356.532 335.97,355.843 
  335.992,355.154 336.014,354.466 336.036,353.777 336.058,353.089 336.081,352.4 336.103,351.711 336.126,351.023 336.15,350.334 336.173,349.645 336.197,348.957 
  336.221,348.268 336.245,347.579 336.269,346.891 336.293,346.202 336.317,345.514 336.342,344.825 336.367,344.136 336.391,343.448 336.416,342.759 336.441,342.07 
  336.466,341.382 336.491,340.693 336.516,340.004 336.541,339.316 336.566,338.627 336.591,337.939 336.616,337.25 336.641,336.561 336.666,335.873 336.691,335.184 
  336.716,334.495 336.741,333.807 336.766,333.118 336.791,332.429 336.816,331.741 336.84,331.052 336.865,330.364 336.89,329.675 336.914,328.986 336.938,328.298 
  336.962,327.609 336.987,326.92 337.01,326.232 337.034,325.543 337.058,324.854 337.081,324.166 337.105,323.477 337.128,322.789 337.151,322.1 337.174,321.411 
  337.197,320.723 337.219,320.034 337.242,319.345 337.264,318.657 337.286,317.968 337.308,317.279 337.33,316.591 337.351,315.902 337.373,315.214 337.394,314.525 
  337.415,313.836 337.436,313.148 337.456,312.459 337.477,311.77 337.497,311.082 337.517,310.393 337.537,309.705 337.556,309.016 337.575,308.327 337.595,307.639 
  337.613,306.95 337.632,306.261 337.651,305.573 337.669,304.884 337.687,304.195 337.705,303.507 337.723,302.818 337.74,302.13 337.757,301.441 337.774,300.752 
  337.791,300.064 337.808,299.375 337.824,298.686 337.84,297.998 337.856,297.309 337.872,296.62 337.888,295.932 337.903,295.243 337.918,294.555 337.933,293.866 
  337.947,293.177 337.962,292.489 337.976,291.8 337.99,291.111 338.004,290.423 338.018,289.734 338.031,289.045 338.044,288.357 338.057,287.668 338.07,286.98 
  338.082,286.291 338.095,285.602 338.107,284.914 338.119,284.225 338.131,283.536 338.142,282.848 338.153,282.159 338.165,281.47 338.175,280.782 338.186,280.093 
  338.197,279.405 338.207,278.716 338.217,278.027 338.227,277.339 338.237,276.65 338.246,275.961 338.256,275.273 338.265,274.584 338.274,273.896 338.283,273.207 
  338.291,272.518 338.3,271.83 338.308,271.141 338.316,270.452 338.324,269.764 338.332,269.075 338.339,268.386 338.347,267.698 338.354,267.009 338.361,266.321 
  338.368,265.632 338.374,264.943 338.381,264.255 338.387,263.566 338.393,262.877 338.399,262.189 338.405,261.5 338.411,260.811 338.416,260.123 338.422,259.434 
  338.427,258.746 338.432,258.057 338.437,257.368 338.442,256.68 338.446,255.991 338.45,255.302 338.455,254.614 338.459,253.925 338.463,253.236 338.467,252.548 
  338.47,251.859 338.474,251.171 338.477,250.482 338.481,249.793 338.484,249.105 338.487,248.416 338.489,247.727 338.492,247.039 338.495,246.35 338.497,245.661 
  338.499,244.973 338.502,244.284 338.504,243.596 338.506,242.907 338.507,242.218 338.509,241.53 338.511,240.841 338.512,240.152 338.513,239.464 338.515,238.775 
  338.516,238.086 338.517,237.398 338.518,236.709 338.518,236.021 338.519,235.332 338.519,234.643 338.52,233.955 338.52,233.266 338.52,232.577 338.521,231.889 
  338.521,231.2 338.52,230.512 338.52,229.823 338.52,229.134 338.52,228.446 338.519,227.757 338.518,227.068 338.518,226.38 338.517,225.691 338.516,225.002 
  338.515,224.314 338.514,223.625 338.513,222.937 338.512,222.248 338.51,221.559 338.509,220.871 338.508,220.182 338.506,219.493 338.504,218.805 338.503,218.116 
  338.501,217.427 338.499,216.739 338.497,216.05 338.495,215.362 338.493,214.673 338.491,213.984 338.489,213.296 338.486,212.607 338.484,211.918 338.481,211.23 
  338.479,210.541 338.476,209.852 338.474,209.164 338.471,208.475 338.468,207.787 338.465,207.098 338.463,206.409 338.46,205.721 338.457,205.032 338.454,204.343 
  338.45,203.655 338.447,202.966 338.444,202.277 338.441,201.589 338.437,200.9 338.434,200.212 338.431,199.523 338.427,198.834 338.424,198.146 338.42,197.457 
  338.416,196.768 338.413,196.08 338.409,195.391 338.405,194.703 338.401,194.014 338.397,193.325 338.394,192.637 338.39,191.948 338.386,191.259 338.382,190.571 
  338.378,189.882 338.373,189.193 338.369,188.505 338.365,187.816 338.361,187.128 338.357,186.439 338.352,185.75 338.348,185.062 338.344,184.373 338.339,183.684 
  338.335,182.996 338.331,182.307 338.326,181.618 338.322,180.93 338.317,180.241 338.312,179.553 338.308,178.864 338.303,178.175 338.299,177.487 338.294,176.798 
  338.289,176.109 338.285,175.421 338.28,174.732 338.275,174.043 338.27,173.355 338.265,172.666 338.261,171.978 338.256,171.289 338.251,170.6 338.246,169.912 
  338.241,169.223 338.236,168.534 338.231,167.846 338.226,167.157 338.221,166.468 338.216,165.78 338.211,165.091 338.206,164.403 338.201,163.714 338.196,163.025 
  338.191,162.337 338.186,161.648 338.181,160.959 338.176,160.271 338.171,159.582 338.166,158.893 338.161,158.205 338.155,157.516 338.15,156.828 338.145,156.139 
  338.14,155.45 338.135,154.762 338.13,154.073 338.124,153.384 338.119,152.696 338.114,152.007 338.109,151.319 338.103,150.63 338.098,149.941 338.093,149.253 
  338.088,148.564 338.082,147.875 338.077,147.187 338.072,146.498 338.067,145.809 338.061,145.121 338.056,144.432 338.051,143.744 338.046,143.055 338.04,142.366 
  338.035,141.678 338.03,140.989 338.024,140.3 338.019,139.612 338.014,138.923 338.008,138.234 338.003,137.546 337.998,136.857 337.993,136.169 337.987,135.48 
  337.982,134.791 337.977,134.103 337.971,133.414 337.966,132.725 337.961,132.037 337.955,131.348 337.95,130.659 337.945,129.971 337.94,129.282 337.934,128.594 
  337.929,127.905 337.924,127.216 337.919,126.528 337.913,125.839 337.908,125.15 337.903,124.462 337.897,123.773 337.892,123.084 337.887,122.396 337.882,121.707 
  337.876,121.019 337.871,120.33 337.866,119.641 337.861,118.953 337.856,118.264 337.85,117.575 337.845,116.887 337.84,116.198 337.835,115.51 337.83,114.821 
  337.824,114.132 337.819,113.444 337.814,112.755 337.809,112.066 337.804,111.378 337.799,110.689 337.793,110 337.788,109.312 337.783,108.623 337.778,107.935 
  337.773,107.246 337.768,106.557 337.763,105.869 337.758,105.18 337.752,104.491 337.747,103.803 337.742,103.114 337.737,102.425 337.732,101.737 337.727,101.048 
  337.722,100.36 337.717,99.6709 337.712,98.9823 337.707,98.2936 337.702,97.605 337.697,96.9164 337.692,96.2277 337.687,95.5391 337.682,94.8505 337.677,94.1618 
  337.672,93.4732 337.667,92.7846 337.662,92.0959 337.658,91.4073 337.653,90.7187 337.648,90.03 337.643,89.3414 337.638,88.6527 337.633,87.9641 337.628,87.2755 
  337.623,86.5868 337.619,85.8982 337.614,85.2096 337.609,84.5209 337.604,83.8323 337.599,83.1437 337.595,82.455 337.59,81.7664 337.585,81.0778 337.58,80.3891 
  337.575,79.7005 337.571,79.0119 337.566,78.3232 337.561,77.6346 337.557,76.946 337.552,76.2573 337.547,75.5687 337.543,74.8801 337.538,74.1914 337.533,73.5028 
  337.529,72.8141 337.524,72.1255 337.519,71.4369 337.515,70.7482 337.51,70.0596 337.506,69.371 337.501,68.6823 337.497,67.9937 337.492,67.3051 337.487,66.6164 
  337.483,65.9278 337.478,65.2392 337.474,64.5505 337.469,63.8619 337.465,63.1733 337.46,62.4846 337.456,61.796 337.452,61.1074 337.447,60.4187 337.443,59.7301 
  337.438,59.0415 337.434,58.3528 337.429,57.6642 337.425,56.9755 337.421,56.2869 337.416,55.5983 337.412,54.9096 337.408,54.221 337.403,53.5324 337.399,52.8437 
  337.395,52.1551 337.39,51.4665 337.386,50.7778 337.382,50.0892 337.378,49.4006 337.373,48.7119 337.369,48.0233 337.365,47.3347 337.361,46.646 337.357,45.9574 
  337.352,45.2688 337.348,44.5801 337.344,43.8915 337.34,43.2029 337.336,42.5142 337.332,41.8256 337.328,41.1369 337.323,40.4483 337.319,39.7597 337.315,39.071 
  337.311,38.3824 337.307,37.6938 337.303,37.0051 337.299,36.3165 337.295,35.6279 337.291,34.9392 337.287,34.2506 337.283,33.562 337.279,32.8733 337.275,32.1847 
  337.271,31.4961 
  "/>
<polyline clip-path="url(#clip8403)" style="stroke:#e26f46; stroke-width:1; stroke-opacity:1; fill:none" points="
  336.212,375.813 336.304,375.125 336.401,374.436 336.503,373.748 336.61,373.059 336.722,372.37 336.838,371.682 336.96,370.993 337.086,370.304 337.218,369.616 
  337.354,368.927 337.495,368.238 337.64,367.55 337.79,366.861 337.945,366.173 338.103,365.484 338.267,364.795 338.434,364.107 338.606,363.418 338.782,362.729 
  338.962,362.041 339.146,361.352 339.334,360.663 339.525,359.975 339.72,359.286 339.919,358.598 340.121,357.909 340.327,357.22 340.535,356.532 340.747,355.843 
  340.962,355.154 341.18,354.466 341.4,353.777 341.623,353.089 341.849,352.4 342.077,351.711 342.307,351.023 342.54,350.334 342.774,349.645 343.011,348.957 
  343.249,348.268 343.489,347.579 343.73,346.891 343.973,346.202 344.217,345.514 344.462,344.825 344.708,344.136 344.956,343.448 345.204,342.759 345.453,342.07 
  345.702,341.382 345.952,340.693 346.202,340.004 346.453,339.316 346.704,338.627 346.955,337.939 347.206,337.25 347.456,336.561 347.707,335.873 347.957,335.184 
  348.207,334.495 348.457,333.807 348.705,333.118 348.954,332.429 349.201,331.741 349.448,331.052 349.694,330.364 349.939,329.675 350.183,328.986 350.426,328.298 
  350.668,327.609 350.908,326.92 351.148,326.232 351.386,325.543 351.622,324.854 351.858,324.166 352.092,323.477 352.324,322.789 352.555,322.1 352.784,321.411 
  353.012,320.723 353.238,320.034 353.462,319.345 353.685,318.657 353.906,317.968 354.125,317.279 354.342,316.591 354.557,315.902 354.771,315.214 354.982,314.525 
  355.192,313.836 355.399,313.148 355.605,312.459 355.809,311.77 356.011,311.082 356.21,310.393 356.408,309.705 356.604,309.016 356.797,308.327 356.989,307.639 
  357.178,306.95 357.365,306.261 357.55,305.573 357.733,304.884 357.914,304.195 358.093,303.507 358.27,302.818 358.444,302.13 358.616,301.441 358.787,300.752 
  358.955,300.064 359.121,299.375 359.284,298.686 359.446,297.998 359.605,297.309 359.763,296.62 359.918,295.932 360.071,295.243 360.222,294.555 360.371,293.866 
  360.517,293.177 360.662,292.489 360.804,291.8 360.944,291.111 361.082,290.423 361.218,289.734 361.352,289.045 361.484,288.357 361.614,287.668 361.741,286.98 
  361.867,286.291 361.99,285.602 362.112,284.914 362.231,284.225 362.349,283.536 362.464,282.848 362.577,282.159 362.688,281.47 362.798,280.782 362.905,280.093 
  363.01,279.405 363.114,278.716 363.215,278.027 363.315,277.339 363.412,276.65 363.508,275.961 363.602,275.273 363.693,274.584 363.783,273.896 363.871,273.207 
  363.958,272.518 364.042,271.83 364.125,271.141 364.205,270.452 364.284,269.764 364.361,269.075 364.437,268.386 364.51,267.698 364.582,267.009 364.652,266.321 
  364.72,265.632 364.787,264.943 364.852,264.255 364.915,263.566 364.977,262.877 365.037,262.189 365.095,261.5 365.152,260.811 365.207,260.123 365.26,259.434 
  365.312,258.746 365.362,258.057 365.411,257.368 365.458,256.68 365.504,255.991 365.548,255.302 365.59,254.614 365.632,253.925 365.671,253.236 365.709,252.548 
  365.746,251.859 365.782,251.171 365.815,250.482 365.848,249.793 365.879,249.105 365.909,248.416 365.937,247.727 365.964,247.039 365.99,246.35 366.014,245.661 
  366.038,244.973 366.059,244.284 366.08,243.596 366.099,242.907 366.117,242.218 366.134,241.53 366.15,240.841 366.164,240.152 366.177,239.464 366.189,238.775 
  366.2,238.086 366.21,237.398 366.219,236.709 366.226,236.021 366.232,235.332 366.238,234.643 366.242,233.955 366.245,233.266 366.247,232.577 366.248,231.889 
  366.248,231.2 366.247,230.512 366.245,229.823 366.242,229.134 366.238,228.446 366.233,227.757 366.227,227.068 366.22,226.38 366.213,225.691 366.204,225.002 
  366.194,224.314 366.184,223.625 366.172,222.937 366.16,222.248 366.147,221.559 366.133,220.871 366.119,220.182 366.103,219.493 366.087,218.805 366.07,218.116 
  366.052,217.427 366.033,216.739 366.014,216.05 365.994,215.362 365.973,214.673 365.951,213.984 365.929,213.296 365.906,212.607 365.882,211.918 365.857,211.23 
  365.832,210.541 365.807,209.852 365.78,209.164 365.753,208.475 365.726,207.787 365.697,207.098 365.668,206.409 365.639,205.721 365.609,205.032 365.578,204.343 
  365.547,203.655 365.515,202.966 365.483,202.277 365.45,201.589 365.417,200.9 365.383,200.212 365.349,199.523 365.314,198.834 365.278,198.146 365.242,197.457 
  365.206,196.768 365.169,196.08 365.132,195.391 365.094,194.703 365.056,194.014 365.017,193.325 364.978,192.637 364.939,191.948 364.899,191.259 364.859,190.571 
  364.818,189.882 364.777,189.193 364.736,188.505 364.694,187.816 364.652,187.128 364.61,186.439 364.567,185.75 364.524,185.062 364.48,184.373 364.437,183.684 
  364.392,182.996 364.348,182.307 364.303,181.618 364.258,180.93 364.213,180.241 364.167,179.553 364.122,178.864 364.075,178.175 364.029,177.487 363.982,176.798 
  363.936,176.109 363.889,175.421 363.841,174.732 363.794,174.043 363.746,173.355 363.698,172.666 363.649,171.978 363.601,171.289 363.552,170.6 363.504,169.912 
  363.455,169.223 363.405,168.534 363.356,167.846 363.306,167.157 363.257,166.468 363.207,165.78 363.157,165.091 363.106,164.403 363.056,163.714 363.006,163.025 
  362.955,162.337 362.904,161.648 362.853,160.959 362.802,160.271 362.751,159.582 362.7,158.893 362.648,158.205 362.597,157.516 362.545,156.828 362.494,156.139 
  362.442,155.45 362.39,154.762 362.338,154.073 362.286,153.384 362.234,152.696 362.182,152.007 362.129,151.319 362.077,150.63 362.025,149.941 361.972,149.253 
  361.92,148.564 361.867,147.875 361.815,147.187 361.762,146.498 361.709,145.809 361.656,145.121 361.604,144.432 361.551,143.744 361.498,143.055 361.445,142.366 
  361.392,141.678 361.339,140.989 361.286,140.3 361.233,139.612 361.18,138.923 361.127,138.234 361.075,137.546 361.022,136.857 360.969,136.169 360.916,135.48 
  360.863,134.791 360.81,134.103 360.757,133.414 360.704,132.725 360.651,132.037 360.598,131.348 360.545,130.659 360.492,129.971 360.439,129.282 360.386,128.594 
  360.334,127.905 360.281,127.216 360.228,126.528 360.175,125.839 360.123,125.15 360.07,124.462 360.017,123.773 359.965,123.084 359.912,122.396 359.86,121.707 
  359.808,121.019 359.755,120.33 359.703,119.641 359.651,118.953 359.598,118.264 359.546,117.575 359.494,116.887 359.442,116.198 359.39,115.51 359.338,114.821 
  359.286,114.132 359.234,113.444 359.183,112.755 359.131,112.066 359.079,111.378 359.028,110.689 358.977,110 358.925,109.312 358.874,108.623 358.823,107.935 
  358.771,107.246 358.72,106.557 358.669,105.869 358.618,105.18 358.568,104.491 358.517,103.803 358.466,103.114 358.415,102.425 358.365,101.737 358.315,101.048 
  358.264,100.36 358.214,99.6709 358.164,98.9823 358.114,98.2936 358.064,97.605 358.014,96.9164 357.964,96.2277 357.914,95.5391 357.865,94.8505 357.815,94.1618 
  357.766,93.4732 357.716,92.7846 357.667,92.0959 357.618,91.4073 357.569,90.7187 357.52,90.03 357.471,89.3414 357.422,88.6527 357.374,87.9641 357.325,87.2755 
  357.277,86.5868 357.228,85.8982 357.18,85.2096 357.132,84.5209 357.084,83.8323 357.036,83.1437 356.988,82.455 356.94,81.7664 356.893,81.0778 356.845,80.3891 
  356.798,79.7005 356.75,79.0119 356.703,78.3232 356.656,77.6346 356.609,76.946 356.562,76.2573 356.516,75.5687 356.469,74.8801 356.422,74.1914 356.376,73.5028 
  356.329,72.8141 356.283,72.1255 356.237,71.4369 356.191,70.7482 356.145,70.0596 356.099,69.371 356.054,68.6823 356.008,67.9937 355.963,67.3051 355.917,66.6164 
  355.872,65.9278 355.827,65.2392 355.782,64.5505 355.737,63.8619 355.692,63.1733 355.648,62.4846 355.603,61.796 355.559,61.1074 355.514,60.4187 355.47,59.7301 
  355.426,59.0415 355.382,58.3528 355.338,57.6642 355.294,56.9755 355.25,56.2869 355.207,55.5983 355.163,54.9096 355.12,54.221 355.077,53.5324 355.034,52.8437 
  354.991,52.1551 354.948,51.4665 354.905,50.7778 354.862,50.0892 354.82,49.4006 354.778,48.7119 354.735,48.0233 354.693,47.3347 354.651,46.646 354.609,45.9574 
  354.567,45.2688 354.525,44.5801 354.484,43.8915 354.442,43.2029 354.401,42.5142 354.359,41.8256 354.318,41.1369 354.277,40.4483 354.236,39.7597 354.195,39.071 
  354.155,38.3824 354.114,37.6938 354.073,37.0051 354.033,36.3165 353.993,35.6279 353.952,34.9392 353.912,34.2506 353.872,33.562 353.833,32.8733 353.793,32.1847 
  353.753,31.4961 
  "/>
<polyline clip-path="url(#clip8403)" style="stroke:#3da44d; stroke-width:1; stroke-opacity:1; fill:none" points="
  336.985,375.813 337.168,375.125 337.362,374.436 337.566,373.748 337.78,373.059 338.003,372.37 338.237,371.682 338.48,370.993 338.733,370.304 338.996,369.616 
  339.268,368.927 339.55,368.238 339.84,367.55 340.14,366.861 340.449,366.173 340.767,365.484 341.094,364.795 341.429,364.107 341.772,363.418 342.124,362.729 
  342.484,362.041 342.852,361.352 343.227,360.663 343.61,359.975 344.001,359.286 344.398,358.598 344.802,357.909 345.213,357.22 345.631,356.532 346.055,355.843 
  346.484,355.154 346.92,354.466 347.361,353.777 347.807,353.089 348.258,352.4 348.714,351.711 349.175,351.023 349.64,350.334 350.109,349.645 350.581,348.957 
  351.058,348.268 351.537,347.579 352.02,346.891 352.506,346.202 352.994,345.514 353.485,344.825 353.977,344.136 354.472,343.448 354.968,342.759 355.466,342.07 
  355.965,341.382 356.465,340.693 356.965,340.004 357.466,339.316 357.968,338.627 358.47,337.939 358.972,337.25 359.473,336.561 359.974,335.873 360.475,335.184 
  360.975,334.495 361.473,333.807 361.971,333.118 362.468,332.429 362.963,331.741 363.456,331.052 363.948,330.364 364.438,329.675 364.926,328.986 365.412,328.298 
  365.895,327.609 366.377,326.92 366.855,326.232 367.332,325.543 367.805,324.854 368.276,324.166 368.744,323.477 369.208,322.789 369.67,322.1 370.129,321.411 
  370.584,320.723 371.036,320.034 371.485,319.345 371.93,318.657 372.371,317.968 372.81,317.279 373.244,316.591 373.675,315.902 374.102,315.214 374.525,314.525 
  374.944,313.836 375.359,313.148 375.771,312.459 376.178,311.77 376.582,311.082 376.981,310.393 377.376,309.705 377.767,309.016 378.154,308.327 378.537,307.639 
  378.916,306.95 379.291,306.261 379.661,305.573 380.027,304.884 380.389,304.195 380.746,303.507 381.1,302.818 381.449,302.13 381.793,301.441 382.134,300.752 
  382.47,300.064 382.802,299.375 383.129,298.686 383.452,297.998 383.771,297.309 384.086,296.62 384.396,295.932 384.702,295.243 385.004,294.555 385.301,293.866 
  385.595,293.177 385.884,292.489 386.168,291.8 386.449,291.111 386.725,290.423 386.997,289.734 387.265,289.045 387.528,288.357 387.788,287.668 388.043,286.98 
  388.294,286.291 388.541,285.602 388.784,284.914 389.023,284.225 389.257,283.536 389.488,282.848 389.715,282.159 389.937,281.47 390.156,280.782 390.371,280.093 
  390.581,279.405 390.788,278.716 390.991,278.027 391.19,277.339 391.385,276.65 391.576,275.961 391.763,275.273 391.947,274.584 392.127,273.896 392.303,273.207 
  392.476,272.518 392.644,271.83 392.809,271.141 392.971,270.452 393.129,269.764 393.283,269.075 393.433,268.386 393.581,267.698 393.724,267.009 393.864,266.321 
  394.001,265.632 394.134,264.943 394.264,264.255 394.391,263.566 394.514,262.877 394.634,262.189 394.75,261.5 394.863,260.811 394.974,260.123 395.08,259.434 
  395.184,258.746 395.285,258.057 395.382,257.368 395.476,256.68 395.568,255.991 395.656,255.302 395.741,254.614 395.823,253.925 395.903,253.236 395.979,252.548 
  396.053,251.859 396.123,251.171 396.191,250.482 396.256,249.793 396.319,249.105 396.378,248.416 396.435,247.727 396.489,247.039 396.54,246.35 396.589,245.661 
  396.635,244.973 396.679,244.284 396.72,243.596 396.759,242.907 396.795,242.218 396.829,241.53 396.86,240.841 396.888,240.152 396.915,239.464 396.939,238.775 
  396.961,238.086 396.98,237.398 396.997,236.709 397.012,236.021 397.025,235.332 397.036,234.643 397.044,233.955 397.05,233.266 397.054,232.577 397.056,231.889 
  397.056,231.2 397.054,230.512 397.05,229.823 397.044,229.134 397.036,228.446 397.026,227.757 397.015,227.068 397.001,226.38 396.985,225.691 396.968,225.002 
  396.949,224.314 396.928,223.625 396.905,222.937 396.881,222.248 396.855,221.559 396.827,220.871 396.798,220.182 396.767,219.493 396.734,218.805 396.7,218.116 
  396.664,217.427 396.627,216.739 396.588,216.05 396.547,215.362 396.506,214.673 396.462,213.984 396.418,213.296 396.372,212.607 396.324,211.918 396.275,211.23 
  396.225,210.541 396.174,209.852 396.121,209.164 396.067,208.475 396.011,207.787 395.955,207.098 395.897,206.409 395.838,205.721 395.778,205.032 395.717,204.343 
  395.654,203.655 395.591,202.966 395.526,202.277 395.461,201.589 395.394,200.9 395.326,200.212 395.257,199.523 395.188,198.834 395.117,198.146 395.045,197.457 
  394.972,196.768 394.899,196.08 394.824,195.391 394.749,194.703 394.672,194.014 394.595,193.325 394.517,192.637 394.438,191.948 394.359,191.259 394.278,190.571 
  394.197,189.882 394.115,189.193 394.032,188.505 393.949,187.816 393.865,187.128 393.78,186.439 393.694,185.75 393.608,185.062 393.521,184.373 393.433,183.684 
  393.345,182.996 393.256,182.307 393.167,181.618 393.077,180.93 392.986,180.241 392.895,179.553 392.804,178.864 392.711,178.175 392.619,177.487 392.525,176.798 
  392.432,176.109 392.337,175.421 392.243,174.732 392.147,174.043 392.052,173.355 391.956,172.666 391.859,171.978 391.762,171.289 391.665,170.6 391.567,169.912 
  391.469,169.223 391.371,168.534 391.272,167.846 391.173,167.157 391.074,166.468 390.974,165.78 390.874,165.091 390.773,164.403 390.672,163.714 390.571,163.025 
  390.47,162.337 390.369,161.648 390.267,160.959 390.165,160.271 390.062,159.582 389.96,158.893 389.857,158.205 389.754,157.516 389.651,156.828 389.548,156.139 
  389.444,155.45 389.34,154.762 389.236,154.073 389.132,153.384 389.028,152.696 388.924,152.007 388.819,151.319 388.714,150.63 388.61,149.941 388.505,149.253 
  388.4,148.564 388.295,147.875 388.189,147.187 388.084,146.498 387.979,145.809 387.873,145.121 387.768,144.432 387.662,143.744 387.556,143.055 387.451,142.366 
  387.345,141.678 387.239,140.989 387.133,140.3 387.027,139.612 386.921,138.923 386.815,138.234 386.709,137.546 386.603,136.857 386.497,136.169 386.391,135.48 
  386.286,134.791 386.18,134.103 386.074,133.414 385.968,132.725 385.862,132.037 385.756,131.348 385.65,130.659 385.545,129.971 385.439,129.282 385.333,128.594 
  385.228,127.905 385.122,127.216 385.017,126.528 384.911,125.839 384.806,125.15 384.701,124.462 384.595,123.773 384.49,123.084 384.385,122.396 384.28,121.707 
  384.175,121.019 384.071,120.33 383.966,119.641 383.861,118.953 383.757,118.264 383.653,117.575 383.549,116.887 383.444,116.198 383.34,115.51 383.237,114.821 
  383.133,114.132 383.029,113.444 382.926,112.755 382.822,112.066 382.719,111.378 382.616,110.689 382.513,110 382.411,109.312 382.308,108.623 382.205,107.935 
  382.103,107.246 382.001,106.557 381.899,105.869 381.797,105.18 381.695,104.491 381.594,103.803 381.493,103.114 381.391,102.425 381.29,101.737 381.189,101.048 
  381.089,100.36 380.988,99.6709 380.888,98.9823 380.788,98.2936 380.688,97.605 380.588,96.9164 380.488,96.2277 380.389,95.5391 380.29,94.8505 380.191,94.1618 
  380.092,93.4732 379.993,92.7846 379.895,92.0959 379.796,91.4073 379.698,90.7187 379.6,90.03 379.503,89.3414 379.405,88.6527 379.308,87.9641 379.211,87.2755 
  379.114,86.5868 379.017,85.8982 378.92,85.2096 378.824,84.5209 378.728,83.8323 378.632,83.1437 378.537,82.455 378.441,81.7664 378.346,81.0778 378.251,80.3891 
  378.156,79.7005 378.061,79.0119 377.967,78.3232 377.873,77.6346 377.779,76.946 377.685,76.2573 377.591,75.5687 377.498,74.8801 377.405,74.1914 377.312,73.5028 
  377.219,72.8141 377.127,72.1255 377.035,71.4369 376.943,70.7482 376.851,70.0596 376.759,69.371 376.668,68.6823 376.577,67.9937 376.486,67.3051 376.395,66.6164 
  376.305,65.9278 376.214,65.2392 376.124,64.5505 376.034,63.8619 375.945,63.1733 375.855,62.4846 375.766,61.796 375.677,61.1074 375.589,60.4187 375.5,59.7301 
  375.412,59.0415 375.324,58.3528 375.236,57.6642 375.149,56.9755 375.061,56.2869 374.974,55.5983 374.887,54.9096 374.801,54.221 374.714,53.5324 374.628,52.8437 
  374.542,52.1551 374.456,51.4665 374.371,50.7778 374.285,50.0892 374.2,49.4006 374.115,48.7119 374.031,48.0233 373.946,47.3347 373.862,46.646 373.778,45.9574 
  373.694,45.2688 373.611,44.5801 373.528,43.8915 373.445,43.2029 373.362,42.5142 373.279,41.8256 373.197,41.1369 373.115,40.4483 373.033,39.7597 372.951,39.071 
  372.869,38.3824 372.788,37.6938 372.707,37.0051 372.626,36.3165 372.546,35.6279 372.465,34.9392 372.385,34.2506 372.305,33.562 372.226,32.8733 372.146,32.1847 
  372.067,31.4961 
  "/>
<polyline clip-path="url(#clip8403)" style="stroke:#c271d2; stroke-width:1; stroke-opacity:1; fill:none" points="
  580.315,375.813 560.457,375.125 543.145,374.436 527.945,373.748 514.512,373.059 502.572,372.37 491.902,371.682 482.321,370.993 473.68,370.304 465.853,369.616 
  458.739,368.927 452.248,368.238 446.308,367.55 440.854,366.861 435.834,366.173 431.199,365.484 426.911,364.795 422.933,364.107 419.236,363.418 415.792,362.729 
  412.577,362.041 409.571,361.352 406.756,360.663 404.114,359.975 401.631,359.286 399.295,358.598 397.093,357.909 395.014,357.22 393.05,356.532 391.191,355.843 
  389.43,355.154 387.76,354.466 386.175,353.777 384.667,353.089 383.233,352.4 381.868,351.711 380.566,351.023 379.324,350.334 378.138,349.645 377.004,348.957 
  375.919,348.268 374.881,347.579 373.887,346.891 372.934,346.202 372.019,345.514 371.141,344.825 370.298,344.136 369.487,343.448 368.707,342.759 367.957,342.07 
  367.234,341.382 366.538,340.693 365.866,340.004 365.219,339.316 364.594,338.627 363.991,337.939 363.408,337.25 362.845,336.561 362.3,335.873 361.774,335.184 
  361.264,334.495 360.77,333.807 360.292,333.118 359.829,332.429 359.38,331.741 358.945,331.052 358.523,330.364 358.113,329.675 357.715,328.986 357.329,328.298 
  356.954,327.609 356.589,326.92 356.234,326.232 355.89,325.543 355.554,324.854 355.228,324.166 354.911,323.477 354.602,322.789 354.301,322.1 354.007,321.411 
  353.722,320.723 353.443,320.034 353.172,319.345 352.907,318.657 352.649,317.968 352.397,317.279 352.151,316.591 351.912,315.902 351.677,315.214 351.449,314.525 
  351.225,313.836 351.007,313.148 350.794,312.459 350.585,311.77 350.381,311.082 350.182,310.393 349.987,309.705 349.797,309.016 349.61,308.327 349.428,307.639 
  349.249,306.95 349.074,306.261 348.903,305.573 348.736,304.884 348.572,304.195 348.411,303.507 348.253,302.818 348.099,302.13 347.947,301.441 347.799,300.752 
  347.654,300.064 347.511,299.375 347.371,298.686 347.234,297.998 347.1,297.309 346.968,296.62 346.838,295.932 346.711,295.243 346.586,294.555 346.464,293.866 
  346.343,293.177 346.225,292.489 346.109,291.8 345.995,291.111 345.884,290.423 345.774,289.734 345.666,289.045 345.559,288.357 345.455,287.668 345.353,286.98 
  345.252,286.291 345.153,285.602 345.055,284.914 344.959,284.225 344.865,283.536 344.772,282.848 344.681,282.159 344.591,281.47 344.503,280.782 344.416,280.093 
  344.331,279.405 344.247,278.716 344.164,278.027 344.082,277.339 344.002,276.65 343.923,275.961 343.845,275.273 343.768,274.584 343.693,273.896 343.619,273.207 
  343.545,272.518 343.473,271.83 343.402,271.141 343.332,270.452 343.263,269.764 343.195,269.075 343.128,268.386 343.062,267.698 342.997,267.009 342.932,266.321 
  342.869,265.632 342.807,264.943 342.745,264.255 342.684,263.566 342.625,262.877 342.565,262.189 342.507,261.5 342.45,260.811 342.393,260.123 342.337,259.434 
  342.282,258.746 342.227,258.057 342.174,257.368 342.121,256.68 342.068,255.991 342.017,255.302 341.966,254.614 341.915,253.925 341.866,253.236 341.817,252.548 
  341.768,251.859 341.72,251.171 341.673,250.482 341.627,249.793 341.581,249.105 341.535,248.416 341.49,247.727 341.446,247.039 341.402,246.35 341.359,245.661 
  341.316,244.973 341.273,244.284 341.232,243.596 341.19,242.907 341.15,242.218 341.109,241.53 341.07,240.841 341.03,240.152 340.991,239.464 340.953,238.775 
  340.915,238.086 340.877,237.398 340.84,236.709 340.803,236.021 340.767,235.332 340.731,234.643 340.695,233.955 340.66,233.266 340.626,232.577 340.591,231.889 
  340.557,231.2 340.524,230.512 340.491,229.823 340.458,229.134 340.425,228.446 340.393,227.757 340.361,227.068 340.33,226.38 340.299,225.691 340.268,225.002 
  340.237,224.314 340.207,223.625 340.177,222.937 340.148,222.248 340.118,221.559 340.089,220.871 340.061,220.182 340.032,219.493 340.004,218.805 339.977,218.116 
  339.949,217.427 339.922,216.739 339.895,216.05 339.868,215.362 339.842,214.673 339.816,213.984 339.79,213.296 339.764,212.607 339.739,211.918 339.714,211.23 
  339.689,210.541 339.664,209.852 339.64,209.164 339.615,208.475 339.592,207.787 339.568,207.098 339.544,206.409 339.521,205.721 339.498,205.032 339.475,204.343 
  339.452,203.655 339.43,202.966 339.408,202.277 339.386,201.589 339.364,200.9 339.342,200.212 339.321,199.523 339.3,198.834 339.279,198.146 339.258,197.457 
  339.237,196.768 339.217,196.08 339.197,195.391 339.177,194.703 339.157,194.014 339.137,193.325 339.117,192.637 339.098,191.948 339.079,191.259 339.06,190.571 
  339.041,189.882 339.022,189.193 339.003,188.505 338.985,187.816 338.967,187.128 338.949,186.439 338.931,185.75 338.913,185.062 338.895,184.373 338.878,183.684 
  338.861,182.996 338.843,182.307 338.826,181.618 338.809,180.93 338.793,180.241 338.776,179.553 338.76,178.864 338.743,178.175 338.727,177.487 338.711,176.798 
  338.695,176.109 338.679,175.421 338.663,174.732 338.648,174.043 338.632,173.355 338.617,172.666 338.602,171.978 338.587,171.289 338.572,170.6 338.557,169.912 
  338.542,169.223 338.528,168.534 338.513,167.846 338.499,167.157 338.484,166.468 338.47,165.78 338.456,165.091 338.442,164.403 338.428,163.714 338.415,163.025 
  338.401,162.337 338.388,161.648 338.374,160.959 338.361,160.271 338.348,159.582 338.334,158.893 338.321,158.205 338.309,157.516 338.296,156.828 338.283,156.139 
  338.27,155.45 338.258,154.762 338.245,154.073 338.233,153.384 338.221,152.696 338.209,152.007 338.196,151.319 338.184,150.63 338.173,149.941 338.161,149.253 
  338.149,148.564 338.137,147.875 338.126,147.187 338.114,146.498 338.103,145.809 338.091,145.121 338.08,144.432 338.069,143.744 338.058,143.055 338.047,142.366 
  338.036,141.678 338.025,140.989 338.014,140.3 338.004,139.612 337.993,138.923 337.982,138.234 337.972,137.546 337.962,136.857 337.951,136.169 337.941,135.48 
  337.931,134.791 337.921,134.103 337.91,133.414 337.9,132.725 337.891,132.037 337.881,131.348 337.871,130.659 337.861,129.971 337.851,129.282 337.842,128.594 
  337.832,127.905 337.823,127.216 337.813,126.528 337.804,125.839 337.795,125.15 337.786,124.462 337.776,123.773 337.767,123.084 337.758,122.396 337.749,121.707 
  337.74,121.019 337.731,120.33 337.723,119.641 337.714,118.953 337.705,118.264 337.696,117.575 337.688,116.887 337.679,116.198 337.671,115.51 337.662,114.821 
  337.654,114.132 337.646,113.444 337.637,112.755 337.629,112.066 337.621,111.378 337.613,110.689 337.605,110 337.597,109.312 337.589,108.623 337.581,107.935 
  337.573,107.246 337.565,106.557 337.557,105.869 337.549,105.18 337.542,104.491 337.534,103.803 337.527,103.114 337.519,102.425 337.511,101.737 337.504,101.048 
  337.497,100.36 337.489,99.6709 337.482,98.9823 337.475,98.2936 337.467,97.605 337.46,96.9164 337.453,96.2277 337.446,95.5391 337.439,94.8505 337.432,94.1618 
  337.425,93.4732 337.418,92.7846 337.411,92.0959 337.404,91.4073 337.397,90.7187 337.39,90.03 337.384,89.3414 337.377,88.6527 337.37,87.9641 337.364,87.2755 
  337.357,86.5868 337.351,85.8982 337.344,85.2096 337.338,84.5209 337.331,83.8323 337.325,83.1437 337.318,82.455 337.312,81.7664 337.306,81.0778 337.299,80.3891 
  337.293,79.7005 337.287,79.0119 337.281,78.3232 337.275,77.6346 337.269,76.946 337.263,76.2573 337.256,75.5687 337.25,74.8801 337.245,74.1914 337.239,73.5028 
  337.233,72.8141 337.227,72.1255 337.221,71.4369 337.215,70.7482 337.209,70.0596 337.204,69.371 337.198,68.6823 337.192,67.9937 337.187,67.3051 337.181,66.6164 
  337.175,65.9278 337.17,65.2392 337.164,64.5505 337.159,63.8619 337.153,63.1733 337.148,62.4846 337.143,61.796 337.137,61.1074 337.132,60.4187 337.126,59.7301 
  337.121,59.0415 337.116,58.3528 337.111,57.6642 337.105,56.9755 337.1,56.2869 337.095,55.5983 337.09,54.9096 337.085,54.221 337.08,53.5324 337.075,52.8437 
  337.07,52.1551 337.065,51.4665 337.06,50.7778 337.055,50.0892 337.05,49.4006 337.045,48.7119 337.04,48.0233 337.035,47.3347 337.03,46.646 337.026,45.9574 
  337.021,45.2688 337.016,44.5801 337.011,43.8915 337.007,43.2029 337.002,42.5142 336.997,41.8256 336.993,41.1369 336.988,40.4483 336.983,39.7597 336.979,39.071 
  336.974,38.3824 336.97,37.6938 336.965,37.0051 336.961,36.3165 336.956,35.6279 336.952,34.9392 336.947,34.2506 336.943,33.562 336.939,32.8733 336.934,32.1847 
  336.93,31.4961 
  "/>
<polygon clip-path="url(#clip8400)" points="
451.589,127.976 562.315,127.976 562.315,52.3761 451.589,52.3761 
  " fill="#ffffff" fill-opacity="1"/>
<polyline clip-path="url(#clip8400)" style="stroke:#000000; stroke-width:1; stroke-opacity:1; fill:none" points="
  451.589,127.976 562.315,127.976 562.315,52.3761 451.589,52.3761 451.589,127.976 
  "/>
<polyline clip-path="url(#clip8400)" style="stroke:#009af9; stroke-width:1; stroke-opacity:1; fill:none" points="
  457.589,67.4961 493.589,67.4961 
  "/>
<g clip-path="url(#clip8400)">
<text style="fill:#000000; fill-opacity:1; font-family:Arial,Helvetica Neue,Helvetica,sans-serif; font-size:12; text-anchor:start;" transform="rotate(0, 499.589, 71.9961)" x="499.589" y="71.9961">supply 1</text>
</g>
<polyline clip-path="url(#clip8400)" style="stroke:#e26f46; stroke-width:1; stroke-opacity:1; fill:none" points="
  457.589,82.6161 493.589,82.6161 
  "/>
<g clip-path="url(#clip8400)">
<text style="fill:#000000; fill-opacity:1; font-family:Arial,Helvetica Neue,Helvetica,sans-serif; font-size:12; text-anchor:start;" transform="rotate(0, 499.589, 87.1161)" x="499.589" y="87.1161">supply 10</text>
</g>
<polyline clip-path="url(#clip8400)" style="stroke:#3da44d; stroke-width:1; stroke-opacity:1; fill:none" points="
  457.589,97.7361 493.589,97.7361 
  "/>
<g clip-path="url(#clip8400)">
<text style="fill:#000000; fill-opacity:1; font-family:Arial,Helvetica Neue,Helvetica,sans-serif; font-size:12; text-anchor:start;" transform="rotate(0, 499.589, 102.236)" x="499.589" y="102.236">supply 20</text>
</g>
<polyline clip-path="url(#clip8400)" style="stroke:#c271d2; stroke-width:1; stroke-opacity:1; fill:none" points="
  457.589,112.856 493.589,112.856 
  "/>
<g clip-path="url(#clip8400)">
<text style="fill:#000000; fill-opacity:1; font-family:Arial,Helvetica Neue,Helvetica,sans-serif; font-size:12; text-anchor:start;" transform="rotate(0, 499.589, 117.356)" x="499.589" y="117.356">Demand</text>
</g>
</svg>
