<?xml version="1.0" encoding="utf-8"?>
<svg xmlns="http://www.w3.org/2000/svg" xmlns:xlink="http://www.w3.org/1999/xlink" width="600" height="400" viewBox="0 0 600 400">
<defs>
  <clipPath id="clip3700">
    <rect x="0" y="0" width="600" height="400"/>
  </clipPath>
</defs>
<polygon clip-path="url(#clip3700)" points="
0,400 600,400 600,0 0,0 
  " fill="#ffffff" fill-opacity="1"/>
<defs>
  <clipPath id="clip3701">
    <rect x="120" y="0" width="421" height="400"/>
  </clipPath>
</defs>
<polygon clip-path="url(#clip3700)" points="
46.1926,175.869 276.97,175.869 276.97,11.811 46.1926,11.811 
  " fill="#ffffff" fill-opacity="1"/>
<defs>
  <clipPath id="clip3702">
    <rect x="46" y="11" width="232" height="165"/>
  </clipPath>
</defs>
<polyline clip-path="url(#clip3702)" style="stroke:#000000; stroke-width:0.5; stroke-opacity:0.1; fill:none" points="
  103.017,175.869 103.017,11.811 
  "/>
<polyline clip-path="url(#clip3702)" style="stroke:#000000; stroke-width:0.5; stroke-opacity:0.1; fill:none" points="
  161.001,175.869 161.001,11.811 
  "/>
<polyline clip-path="url(#clip3702)" style="stroke:#000000; stroke-width:0.5; stroke-opacity:0.1; fill:none" points="
  218.985,175.869 218.985,11.811 
  "/>
<polyline clip-path="url(#clip3702)" style="stroke:#000000; stroke-width:0.5; stroke-opacity:0.1; fill:none" points="
  276.97,175.869 276.97,11.811 
  "/>
<polyline clip-path="url(#clip3702)" style="stroke:#000000; stroke-width:0.5; stroke-opacity:0.1; fill:none" points="
  46.1926,175.869 276.97,175.869 
  "/>
<polyline clip-path="url(#clip3702)" style="stroke:#000000; stroke-width:0.5; stroke-opacity:0.1; fill:none" points="
  46.1926,134.854 276.97,134.854 
  "/>
<polyline clip-path="url(#clip3702)" style="stroke:#000000; stroke-width:0.5; stroke-opacity:0.1; fill:none" points="
  46.1926,93.8399 276.97,93.8399 
  "/>
<polyline clip-path="url(#clip3702)" style="stroke:#000000; stroke-width:0.5; stroke-opacity:0.1; fill:none" points="
  46.1926,52.8254 276.97,52.8254 
  "/>
<polyline clip-path="url(#clip3702)" style="stroke:#000000; stroke-width:0.5; stroke-opacity:0.1; fill:none" points="
  46.1926,11.811 276.97,11.811 
  "/>
<polyline clip-path="url(#clip3700)" style="stroke:#000000; stroke-width:1; stroke-opacity:1; fill:none" points="
  46.1926,175.869 276.97,175.869 
  "/>
<polyline clip-path="url(#clip3700)" style="stroke:#000000; stroke-width:1; stroke-opacity:1; fill:none" points="
  46.1926,175.869 46.1926,11.811 
  "/>
<polyline clip-path="url(#clip3700)" style="stroke:#000000; stroke-width:1; stroke-opacity:1; fill:none" points="
  103.017,175.869 103.017,173.408 
  "/>
<polyline clip-path="url(#clip3700)" style="stroke:#000000; stroke-width:1; stroke-opacity:1; fill:none" points="
  161.001,175.869 161.001,173.408 
  "/>
<polyline clip-path="url(#clip3700)" style="stroke:#000000; stroke-width:1; stroke-opacity:1; fill:none" points="
  218.985,175.869 218.985,173.408 
  "/>
<polyline clip-path="url(#clip3700)" style="stroke:#000000; stroke-width:1; stroke-opacity:1; fill:none" points="
  276.97,175.869 276.97,173.408 
  "/>
<polyline clip-path="url(#clip3700)" style="stroke:#000000; stroke-width:1; stroke-opacity:1; fill:none" points="
  46.1926,175.869 49.6543,175.869 
  "/>
<polyline clip-path="url(#clip3700)" style="stroke:#000000; stroke-width:1; stroke-opacity:1; fill:none" points="
  46.1926,134.854 49.6543,134.854 
  "/>
<polyline clip-path="url(#clip3700)" style="stroke:#000000; stroke-width:1; stroke-opacity:1; fill:none" points="
  46.1926,93.8399 49.6543,93.8399 
  "/>
<polyline clip-path="url(#clip3700)" style="stroke:#000000; stroke-width:1; stroke-opacity:1; fill:none" points="
  46.1926,52.8254 49.6543,52.8254 
  "/>
<polyline clip-path="url(#clip3700)" style="stroke:#000000; stroke-width:1; stroke-opacity:1; fill:none" points="
  46.1926,11.811 49.6543,11.811 
  "/>
<g clip-path="url(#clip3700)">
<text style="fill:#000000; fill-opacity:1; font-family:Arial,Helvetica Neue,Helvetica,sans-serif; font-size:12; text-anchor:middle;" transform="rotate(0, 103.017, 189.669)" x="103.017" y="189.669">0.5</text>
</g>
<g clip-path="url(#clip3700)">
<text style="fill:#000000; fill-opacity:1; font-family:Arial,Helvetica Neue,Helvetica,sans-serif; font-size:12; text-anchor:middle;" transform="rotate(0, 161.001, 189.669)" x="161.001" y="189.669">1.0</text>
</g>
<g clip-path="url(#clip3700)">
<text style="fill:#000000; fill-opacity:1; font-family:Arial,Helvetica Neue,Helvetica,sans-serif; font-size:12; text-anchor:middle;" transform="rotate(0, 218.985, 189.669)" x="218.985" y="189.669">1.5</text>
</g>
<g clip-path="url(#clip3700)">
<text style="fill:#000000; fill-opacity:1; font-family:Arial,Helvetica Neue,Helvetica,sans-serif; font-size:12; text-anchor:middle;" transform="rotate(0, 276.97, 189.669)" x="276.97" y="189.669">2.0</text>
</g>
<g clip-path="url(#clip3700)">
<text style="fill:#000000; fill-opacity:1; font-family:Arial,Helvetica Neue,Helvetica,sans-serif; font-size:12; text-anchor:end;" transform="rotate(0, 40.1926, 180.369)" x="40.1926" y="180.369">-50</text>
</g>
<g clip-path="url(#clip3700)">
<text style="fill:#000000; fill-opacity:1; font-family:Arial,Helvetica Neue,Helvetica,sans-serif; font-size:12; text-anchor:end;" transform="rotate(0, 40.1926, 139.354)" x="40.1926" y="139.354">-45</text>
</g>
<g clip-path="url(#clip3700)">
<text style="fill:#000000; fill-opacity:1; font-family:Arial,Helvetica Neue,Helvetica,sans-serif; font-size:12; text-anchor:end;" transform="rotate(0, 40.1926, 98.3399)" x="40.1926" y="98.3399">-40</text>
</g>
<g clip-path="url(#clip3700)">
<text style="fill:#000000; fill-opacity:1; font-family:Arial,Helvetica Neue,Helvetica,sans-serif; font-size:12; text-anchor:end;" transform="rotate(0, 40.1926, 57.3254)" x="40.1926" y="57.3254">-35</text>
</g>
<g clip-path="url(#clip3700)">
<text style="fill:#000000; fill-opacity:1; font-family:Arial,Helvetica Neue,Helvetica,sans-serif; font-size:12; text-anchor:end;" transform="rotate(0, 40.1926, 16.311)" x="40.1926" y="16.311">-30</text>
</g>
<polyline clip-path="url(#clip3702)" style="stroke:#009af9; stroke-width:1; stroke-opacity:1; fill:none" points="
  46.1926,115.657 47.7414,103.537 49.2903,97.2112 50.8391,92.8449 52.388,89.5409 53.9368,86.8775 55.4856,84.6422 57.0345,82.7162 58.5833,81.0252 60.1322,79.5161 
  61.681,78.1516 63.2298,76.9064 64.7787,75.7653 66.3275,74.7148 67.8764,73.7338 69.4252,72.8148 70.974,71.9573 72.5229,71.1454 74.0717,70.3709 75.6205,69.6571 
  77.1694,68.9718 78.7182,68.315 80.2671,67.6914 81.8159,67.0889 83.3647,66.5173 84.9136,65.9656 86.4624,65.4301 88.0113,64.9226 89.5601,64.4281 91.1089,63.9539 
  92.6578,63.4914 94.2066,63.0425 95.7555,62.6099 97.3043,62.1935 98.8531,61.7873 100.402,61.39 101.951,61.0071 103.5,60.6333 105.048,60.2696 106.597,59.912 
  108.146,59.566 109.695,59.225 111.244,58.8962 112.793,58.5726 114.342,58.2589 115.89,57.9523 117.439,57.6516 118.988,57.3569 120.537,57.0678 122.086,56.7837 
  123.635,56.5054 125.183,56.2353 126.732,55.968 128.281,55.7075 129.83,55.4495 131.379,55.1986 132.928,54.9504 134.476,54.7069 136.025,54.4658 137.574,54.2301 
  139.123,53.9996 140.672,53.7711 142.221,53.5465 143.769,53.324 145.318,53.1079 146.867,52.8948 148.416,52.6842 149.965,52.4767 151.514,52.2712 153.063,52.0711 
  154.611,51.873 156.16,51.6775 157.709,51.4858 159.258,51.2952 160.807,51.1085 162.356,50.9232 163.904,50.7406 165.453,50.5606 167.002,50.3819 168.551,50.2066 
  170.1,50.0324 171.649,49.8608 173.197,49.691 174.746,49.5226 176.295,49.3574 177.844,49.1932 179.393,49.0313 180.942,48.8727 182.49,48.7153 184.039,48.5593 
  185.588,48.4047 187.137,48.2513 188.686,48.1011 190.235,47.9521 191.784,47.8042 193.332,47.6577 194.881,47.512 196.43,47.3689 197.979,47.228 199.528,47.0876 
  201.077,46.9488 202.625,46.8109 204.174,46.6742 205.723,46.5396 207.272,46.4057 208.821,46.273 210.37,46.1413 211.918,46.0103 213.467,45.8815 215.016,45.754 
  216.565,45.627 218.114,45.5019 219.663,45.3783 221.211,45.2551 222.76,45.1332 224.309,45.012 225.858,44.8915 227.407,44.7727 228.956,44.6545 230.504,44.5372 
  232.053,44.4208 233.602,44.3048 235.151,44.1903 236.7,44.0776 238.249,43.9658 239.798,43.8544 241.346,43.7444 242.895,43.6352 244.444,43.5263 245.993,43.4187 
  247.542,43.3116 249.091,43.205 250.639,43.0999 252.188,42.9952 253.737,42.891 255.286,42.7878 256.835,42.6849 258.384,42.5829 259.932,42.4823 261.481,42.3829 
  263.03,42.2837 264.579,42.1852 266.128,42.0875 267.677,41.99 269.225,41.8935 270.774,41.7978 272.323,41.7023 273.872,41.6077 275.421,41.5143 276.97,41.4213 
  
  "/>
<polygon clip-path="url(#clip3700)" points="
190.943,139.869 258.97,139.869 258.97,109.629 190.943,109.629 
  " fill="#ffffff" fill-opacity="1"/>
<polyline clip-path="url(#clip3700)" style="stroke:#000000; stroke-width:1; stroke-opacity:1; fill:none" points="
  190.943,139.869 258.97,139.869 258.97,109.629 190.943,109.629 190.943,139.869 
  "/>
<polyline clip-path="url(#clip3700)" style="stroke:#009af9; stroke-width:1; stroke-opacity:1; fill:none" points="
  196.943,124.749 232.943,124.749 
  "/>
<g clip-path="url(#clip3700)">
<text style="fill:#000000; fill-opacity:1; font-family:Arial,Helvetica Neue,Helvetica,sans-serif; font-size:12; text-anchor:start;" transform="rotate(0, 238.943, 129.249)" x="238.943" y="129.249">V</text>
</g>
<polygon clip-path="url(#clip3700)" points="
329.129,175.869 580.315,175.869 580.315,11.811 329.129,11.811 
  " fill="#ffffff" fill-opacity="1"/>
<defs>
  <clipPath id="clip3703">
    <rect x="329" y="11" width="252" height="165"/>
  </clipPath>
</defs>
<polyline clip-path="url(#clip3703)" style="stroke:#000000; stroke-width:0.5; stroke-opacity:0.1; fill:none" points="
  390.979,175.869 390.979,11.811 
  "/>
<polyline clip-path="url(#clip3703)" style="stroke:#000000; stroke-width:0.5; stroke-opacity:0.1; fill:none" points="
  454.091,175.869 454.091,11.811 
  "/>
<polyline clip-path="url(#clip3703)" style="stroke:#000000; stroke-width:0.5; stroke-opacity:0.1; fill:none" points="
  517.203,175.869 517.203,11.811 
  "/>
<polyline clip-path="url(#clip3703)" style="stroke:#000000; stroke-width:0.5; stroke-opacity:0.1; fill:none" points="
  580.315,175.869 580.315,11.811 
  "/>
<polyline clip-path="url(#clip3703)" style="stroke:#000000; stroke-width:0.5; stroke-opacity:0.1; fill:none" points="
  329.129,146.401 580.315,146.401 
  "/>
<polyline clip-path="url(#clip3703)" style="stroke:#000000; stroke-width:0.5; stroke-opacity:0.1; fill:none" points="
  329.129,111.344 580.315,111.344 
  "/>
<polyline clip-path="url(#clip3703)" style="stroke:#000000; stroke-width:0.5; stroke-opacity:0.1; fill:none" points="
  329.129,76.2869 580.315,76.2869 
  "/>
<polyline clip-path="url(#clip3703)" style="stroke:#000000; stroke-width:0.5; stroke-opacity:0.1; fill:none" points="
  329.129,41.2297 580.315,41.2297 
  "/>
<polyline clip-path="url(#clip3700)" style="stroke:#000000; stroke-width:1; stroke-opacity:1; fill:none" points="
  329.129,175.869 580.315,175.869 
  "/>
<polyline clip-path="url(#clip3700)" style="stroke:#000000; stroke-width:1; stroke-opacity:1; fill:none" points="
  329.129,175.869 329.129,11.811 
  "/>
<polyline clip-path="url(#clip3700)" style="stroke:#000000; stroke-width:1; stroke-opacity:1; fill:none" points="
  390.979,175.869 390.979,173.408 
  "/>
<polyline clip-path="url(#clip3700)" style="stroke:#000000; stroke-width:1; stroke-opacity:1; fill:none" points="
  454.091,175.869 454.091,173.408 
  "/>
<polyline clip-path="url(#clip3700)" style="stroke:#000000; stroke-width:1; stroke-opacity:1; fill:none" points="
  517.203,175.869 517.203,173.408 
  "/>
<polyline clip-path="url(#clip3700)" style="stroke:#000000; stroke-width:1; stroke-opacity:1; fill:none" points="
  580.315,175.869 580.315,173.408 
  "/>
<polyline clip-path="url(#clip3700)" style="stroke:#000000; stroke-width:1; stroke-opacity:1; fill:none" points="
  329.129,146.401 332.897,146.401 
  "/>
<polyline clip-path="url(#clip3700)" style="stroke:#000000; stroke-width:1; stroke-opacity:1; fill:none" points="
  329.129,111.344 332.897,111.344 
  "/>
<polyline clip-path="url(#clip3700)" style="stroke:#000000; stroke-width:1; stroke-opacity:1; fill:none" points="
  329.129,76.2869 332.897,76.2869 
  "/>
<polyline clip-path="url(#clip3700)" style="stroke:#000000; stroke-width:1; stroke-opacity:1; fill:none" points="
  329.129,41.2297 332.897,41.2297 
  "/>
<g clip-path="url(#clip3700)">
<text style="fill:#000000; fill-opacity:1; font-family:Arial,Helvetica Neue,Helvetica,sans-serif; font-size:12; text-anchor:middle;" transform="rotate(0, 390.979, 189.669)" x="390.979" y="189.669">0.5</text>
</g>
<g clip-path="url(#clip3700)">
<text style="fill:#000000; fill-opacity:1; font-family:Arial,Helvetica Neue,Helvetica,sans-serif; font-size:12; text-anchor:middle;" transform="rotate(0, 454.091, 189.669)" x="454.091" y="189.669">1.0</text>
</g>
<g clip-path="url(#clip3700)">
<text style="fill:#000000; fill-opacity:1; font-family:Arial,Helvetica Neue,Helvetica,sans-serif; font-size:12; text-anchor:middle;" transform="rotate(0, 517.203, 189.669)" x="517.203" y="189.669">1.5</text>
</g>
<g clip-path="url(#clip3700)">
<text style="fill:#000000; fill-opacity:1; font-family:Arial,Helvetica Neue,Helvetica,sans-serif; font-size:12; text-anchor:middle;" transform="rotate(0, 580.315, 189.669)" x="580.315" y="189.669">2.0</text>
</g>
<g clip-path="url(#clip3700)">
<text style="fill:#000000; fill-opacity:1; font-family:Arial,Helvetica Neue,Helvetica,sans-serif; font-size:12; text-anchor:end;" transform="rotate(0, 323.129, 150.901)" x="323.129" y="150.901">0.2</text>
</g>
<g clip-path="url(#clip3700)">
<text style="fill:#000000; fill-opacity:1; font-family:Arial,Helvetica Neue,Helvetica,sans-serif; font-size:12; text-anchor:end;" transform="rotate(0, 323.129, 115.844)" x="323.129" y="115.844">0.4</text>
</g>
<g clip-path="url(#clip3700)">
<text style="fill:#000000; fill-opacity:1; font-family:Arial,Helvetica Neue,Helvetica,sans-serif; font-size:12; text-anchor:end;" transform="rotate(0, 323.129, 80.7869)" x="323.129" y="80.7869">0.6</text>
</g>
<g clip-path="url(#clip3700)">
<text style="fill:#000000; fill-opacity:1; font-family:Arial,Helvetica Neue,Helvetica,sans-serif; font-size:12; text-anchor:end;" transform="rotate(0, 323.129, 45.7297)" x="323.129" y="45.7297">0.8</text>
</g>
<polyline clip-path="url(#clip3703)" style="stroke:#009af9; stroke-width:1; stroke-opacity:1; fill:none" points="
  329.129,175.869 330.815,172.329 332.501,168.59 334.187,165.659 335.872,163.318 337.558,160.977 339.244,158.636 340.93,156.295 342.616,154.272 344.301,152.588 
  345.987,151.063 347.673,149.272 349.359,146.931 351.045,145.202 352.731,144.063 354.416,142.248 356.102,140.131 357.788,138.79 359.474,137.566 361.16,136.065 
  362.845,134.84 364.531,132.884 366.217,131.425 367.903,130.543 369.589,128.517 371.274,127.429 372.96,125.861 374.646,124.876 376.332,123.52 378.018,121.891 
  379.704,120.916 381.389,118.85 383.075,118.838 384.761,116.868 386.447,115.913 388.133,114.156 389.818,113.72 391.504,111.815 393.19,110.933 394.876,109.474 
  396.562,108.449 398.247,107.132 399.933,106.421 401.619,104.791 403.305,104.569 404.991,102.753 406.676,102.166 408.362,100.379 410.048,99.7102 411.734,97.9482 
  413.42,97.7682 415.106,96.3905 416.791,95.4271 418.477,94.2163 420.163,93.0861 421.849,92.342 423.535,90.745 425.22,89.9294 426.906,88.4039 428.592,88.4039 
  430.278,86.8582 431.964,86.0629 433.649,84.478 435.335,83.7218 437.021,83.4356 438.707,81.8388 440.393,81.25 442.079,79.67 443.764,79.0397 445.45,78.5149 
  447.136,76.9588 448.822,76.6986 450.508,75.3407 452.193,74.3575 453.879,73.6034 455.565,72.0844 457.251,71.9291 458.937,70.4239 460.622,69.6754 462.308,68.7578 
  463.994,67.3344 465.68,67.0196 467.366,65.5472 469.051,64.9933 470.737,64.1081 472.423,62.654 474.109,62.6522 475.795,61.9577 477.481,60.521 479.166,59.8903 
  480.852,58.4649 482.538,57.9701 484.224,57.6065 485.91,56.1973 487.595,55.5467 489.281,54.1479 490.967,53.288 492.653,53.288 494.339,52.1708 496.024,50.9469 
  497.71,50.3205 499.396,48.9514 501.082,48.6058 502.768,47.7898 504.453,46.4346 506.139,45.9239 507.825,44.5776 509.511,43.9237 511.197,43.8202 512.883,42.487 
  514.568,41.5826 516.254,41.5826 517.94,40.4021 519.626,39.2416 521.312,38.606 522.997,37.2975 524.683,36.9005 526.369,36.2 528.055,34.9032 529.741,34.4605 
  531.426,33.1713 533.112,32.2184 534.798,32.2184 536.484,31.9836 538.17,30.7091 539.856,29.8773 541.541,29.5188 543.227,28.2549 544.913,27.5363 546.599,26.856 
  548.285,25.6023 549.97,25.1952 551.656,24.5531 553.342,23.3094 555.028,22.8541 556.714,21.7761 558.399,20.542 560.085,20.5131 561.771,20.5131 563.457,19.493 
  565.143,18.2714 566.828,18.1106 568.514,16.895 570.2,15.8309 571.886,15.8275 573.572,14.6208 575.258,13.4899 576.943,13.4899 578.629,13.0063 580.315,11.811 
  
  "/>
<polygon clip-path="url(#clip3700)" points="
471.558,139.869 562.315,139.869 562.315,109.629 471.558,109.629 
  " fill="#ffffff" fill-opacity="1"/>
<polyline clip-path="url(#clip3700)" style="stroke:#000000; stroke-width:1; stroke-opacity:1; fill:none" points="
  471.558,139.869 562.315,139.869 562.315,109.629 471.558,109.629 471.558,139.869 
  "/>
<polyline clip-path="url(#clip3700)" style="stroke:#009af9; stroke-width:1; stroke-opacity:1; fill:none" points="
  477.558,124.749 513.558,124.749 
  "/>
<g clip-path="url(#clip3700)">
<text style="fill:#000000; fill-opacity:1; font-family:Arial,Helvetica Neue,Helvetica,sans-serif; font-size:12; text-anchor:start;" transform="rotate(0, 519.558, 129.249)" x="519.558" y="129.249">policy</text>
</g>
<polygon clip-path="url(#clip3700)" points="
46.1926,375.869 276.97,375.869 276.97,211.811 46.1926,211.811 
  " fill="#ffffff" fill-opacity="1"/>
<defs>
  <clipPath id="clip3704">
    <rect x="46" y="211" width="232" height="165"/>
  </clipPath>
</defs>
<polyline clip-path="url(#clip3704)" style="stroke:#000000; stroke-width:0.5; stroke-opacity:0.1; fill:none" points="
  103.017,375.869 103.017,211.811 
  "/>
<polyline clip-path="url(#clip3704)" style="stroke:#000000; stroke-width:0.5; stroke-opacity:0.1; fill:none" points="
  161.001,375.869 161.001,211.811 
  "/>
<polyline clip-path="url(#clip3704)" style="stroke:#000000; stroke-width:0.5; stroke-opacity:0.1; fill:none" points="
  218.985,375.869 218.985,211.811 
  "/>
<polyline clip-path="url(#clip3704)" style="stroke:#000000; stroke-width:0.5; stroke-opacity:0.1; fill:none" points="
  276.97,375.869 276.97,211.811 
  "/>
<polyline clip-path="url(#clip3704)" style="stroke:#000000; stroke-width:0.5; stroke-opacity:0.1; fill:none" points="
  46.1926,347.558 276.97,347.558 
  "/>
<polyline clip-path="url(#clip3704)" style="stroke:#000000; stroke-width:0.5; stroke-opacity:0.1; fill:none" points="
  46.1926,313.385 276.97,313.385 
  "/>
<polyline clip-path="url(#clip3704)" style="stroke:#000000; stroke-width:0.5; stroke-opacity:0.1; fill:none" points="
  46.1926,279.212 276.97,279.212 
  "/>
<polyline clip-path="url(#clip3704)" style="stroke:#000000; stroke-width:0.5; stroke-opacity:0.1; fill:none" points="
  46.1926,245.04 276.97,245.04 
  "/>
<polyline clip-path="url(#clip3700)" style="stroke:#000000; stroke-width:1; stroke-opacity:1; fill:none" points="
  46.1926,375.869 276.97,375.869 
  "/>
<polyline clip-path="url(#clip3700)" style="stroke:#000000; stroke-width:1; stroke-opacity:1; fill:none" points="
  46.1926,375.869 46.1926,211.811 
  "/>
<polyline clip-path="url(#clip3700)" style="stroke:#000000; stroke-width:1; stroke-opacity:1; fill:none" points="
  103.017,375.869 103.017,373.408 
  "/>
<polyline clip-path="url(#clip3700)" style="stroke:#000000; stroke-width:1; stroke-opacity:1; fill:none" points="
  161.001,375.869 161.001,373.408 
  "/>
<polyline clip-path="url(#clip3700)" style="stroke:#000000; stroke-width:1; stroke-opacity:1; fill:none" points="
  218.985,375.869 218.985,373.408 
  "/>
<polyline clip-path="url(#clip3700)" style="stroke:#000000; stroke-width:1; stroke-opacity:1; fill:none" points="
  276.97,375.869 276.97,373.408 
  "/>
<polyline clip-path="url(#clip3700)" style="stroke:#000000; stroke-width:1; stroke-opacity:1; fill:none" points="
  46.1926,347.558 49.6543,347.558 
  "/>
<polyline clip-path="url(#clip3700)" style="stroke:#000000; stroke-width:1; stroke-opacity:1; fill:none" points="
  46.1926,313.385 49.6543,313.385 
  "/>
<polyline clip-path="url(#clip3700)" style="stroke:#000000; stroke-width:1; stroke-opacity:1; fill:none" points="
  46.1926,279.212 49.6543,279.212 
  "/>
<polyline clip-path="url(#clip3700)" style="stroke:#000000; stroke-width:1; stroke-opacity:1; fill:none" points="
  46.1926,245.04 49.6543,245.04 
  "/>
<g clip-path="url(#clip3700)">
<text style="fill:#000000; fill-opacity:1; font-family:Arial,Helvetica Neue,Helvetica,sans-serif; font-size:12; text-anchor:middle;" transform="rotate(0, 103.017, 389.669)" x="103.017" y="389.669">0.5</text>
</g>
<g clip-path="url(#clip3700)">
<text style="fill:#000000; fill-opacity:1; font-family:Arial,Helvetica Neue,Helvetica,sans-serif; font-size:12; text-anchor:middle;" transform="rotate(0, 161.001, 389.669)" x="161.001" y="389.669">1.0</text>
</g>
<g clip-path="url(#clip3700)">
<text style="fill:#000000; fill-opacity:1; font-family:Arial,Helvetica Neue,Helvetica,sans-serif; font-size:12; text-anchor:middle;" transform="rotate(0, 218.985, 389.669)" x="218.985" y="389.669">1.5</text>
</g>
<g clip-path="url(#clip3700)">
<text style="fill:#000000; fill-opacity:1; font-family:Arial,Helvetica Neue,Helvetica,sans-serif; font-size:12; text-anchor:middle;" transform="rotate(0, 276.97, 389.669)" x="276.97" y="389.669">2.0</text>
</g>
<g clip-path="url(#clip3700)">
<text style="fill:#000000; fill-opacity:1; font-family:Arial,Helvetica Neue,Helvetica,sans-serif; font-size:12; text-anchor:end;" transform="rotate(0, 40.1926, 352.058)" x="40.1926" y="352.058">-0.04</text>
</g>
<g clip-path="url(#clip3700)">
<text style="fill:#000000; fill-opacity:1; font-family:Arial,Helvetica Neue,Helvetica,sans-serif; font-size:12; text-anchor:end;" transform="rotate(0, 40.1926, 317.885)" x="40.1926" y="317.885">-0.03</text>
</g>
<g clip-path="url(#clip3700)">
<text style="fill:#000000; fill-opacity:1; font-family:Arial,Helvetica Neue,Helvetica,sans-serif; font-size:12; text-anchor:end;" transform="rotate(0, 40.1926, 283.712)" x="40.1926" y="283.712">-0.02</text>
</g>
<g clip-path="url(#clip3700)">
<text style="fill:#000000; fill-opacity:1; font-family:Arial,Helvetica Neue,Helvetica,sans-serif; font-size:12; text-anchor:end;" transform="rotate(0, 40.1926, 249.54)" x="40.1926" y="249.54">-0.01</text>
</g>
<polyline clip-path="url(#clip3704)" style="stroke:#009af9; stroke-width:1; stroke-opacity:1; fill:none" points="
  46.1926,375.869 47.7414,252.753 49.2903,243.7 50.8391,226.556 52.388,223.29 53.9368,223.469 55.4856,223.598 57.0345,223.626 58.5833,224.033 60.1322,223.825 
  61.681,222.448 63.2298,220.306 64.7787,219.304 66.3275,220.203 67.8764,219.236 69.4252,217.322 70.974,217.631 72.5229,216.158 74.0717,211.811 75.6205,216.188 
  77.1694,217.547 78.7182,217.252 80.2671,218.52 81.8159,217.366 83.3647,218.759 84.9136,218.917 86.4624,217.1 88.0113,218.829 89.5601,218.42 91.1089,219.434 
  92.6578,218.77 94.2066,217.584 95.7555,217.463 97.3043,218.683 98.8531,219.034 100.402,218.254 101.951,218.978 103.5,219.135 105.048,219.478 106.597,218.475 
  108.146,218.599 109.695,217.353 111.244,217.807 112.793,217.274 114.342,217.849 115.89,218.439 117.439,218.767 118.988,218.914 120.537,218.838 122.086,218.393 
  123.635,218.025 125.183,218.801 126.732,218.599 128.281,219.146 129.83,218.725 131.379,219.287 132.928,219.138 134.476,219.132 136.025,218.401 137.574,218.238 
  139.123,218.564 140.672,218.22 142.221,217.947 143.769,217.074 145.318,217.407 146.867,217.634 148.416,217.552 149.965,217.471 151.514,216.954 153.063,217.441 
  154.611,217.598 156.16,217.675 157.709,218.161 159.258,218.064 160.807,218.487 162.356,218.459 163.904,218.549 165.453,218.742 167.002,218.514 168.551,218.768 
  170.1,218.546 171.649,218.529 173.197,218.409 174.746,218.018 176.295,218.142 177.844,217.849 179.393,217.713 180.942,218.229 182.49,218.425 184.039,218.539 
  185.588,218.478 187.137,218.213 188.686,218.561 190.235,218.784 191.784,218.773 193.332,218.739 194.881,218.374 196.43,218.462 197.979,218.847 199.528,218.869 
  201.077,219.007 202.625,218.917 204.174,218.729 205.723,218.921 207.272,218.835 208.821,218.721 210.37,218.512 211.918,218.087 213.467,218.089 215.016,218.129 
  216.565,217.897 218.114,217.977 219.663,218.227 221.211,218.189 222.76,218.236 224.309,218.096 225.858,217.855 227.407,217.924 228.956,217.798 230.504,217.591 
  232.053,217.394 233.602,216.962 235.151,216.764 236.7,216.96 238.249,217.122 239.798,217.08 241.346,217.262 242.895,217.367 244.444,217.296 245.993,217.408 
  247.542,217.357 249.091,217.218 250.639,217.324 252.188,217.282 253.737,217.14 255.286,217.093 256.835,216.846 258.384,216.651 259.932,216.778 261.481,217.04 
  263.03,217.116 264.579,217.209 266.128,217.333 267.677,217.276 269.225,217.329 270.774,217.436 272.323,217.365 273.872,217.375 275.421,217.625 276.97,217.783 
  
  "/>
<polygon clip-path="url(#clip3700)" points="
162.196,339.869 258.97,339.869 258.97,309.629 162.196,309.629 
  " fill="#ffffff" fill-opacity="1"/>
<polyline clip-path="url(#clip3700)" style="stroke:#000000; stroke-width:1; stroke-opacity:1; fill:none" points="
  162.196,339.869 258.97,339.869 258.97,309.629 162.196,309.629 162.196,339.869 
  "/>
<polyline clip-path="url(#clip3700)" style="stroke:#009af9; stroke-width:1; stroke-opacity:1; fill:none" points="
  168.196,324.749 204.196,324.749 
  "/>
<g clip-path="url(#clip3700)">
<text style="fill:#000000; fill-opacity:1; font-family:Arial,Helvetica Neue,Helvetica,sans-serif; font-size:12; text-anchor:start;" transform="rotate(0, 210.196, 329.249)" x="210.196" y="329.249">V error</text>
</g>
<polygon clip-path="url(#clip3700)" points="
349.538,375.869 580.315,375.869 580.315,211.811 349.538,211.811 
  " fill="#ffffff" fill-opacity="1"/>
<defs>
  <clipPath id="clip3705">
    <rect x="349" y="211" width="232" height="165"/>
  </clipPath>
</defs>
<polyline clip-path="url(#clip3705)" style="stroke:#000000; stroke-width:0.5; stroke-opacity:0.1; fill:none" points="
  406.362,375.869 406.362,211.811 
  "/>
<polyline clip-path="url(#clip3705)" style="stroke:#000000; stroke-width:0.5; stroke-opacity:0.1; fill:none" points="
  464.347,375.869 464.347,211.811 
  "/>
<polyline clip-path="url(#clip3705)" style="stroke:#000000; stroke-width:0.5; stroke-opacity:0.1; fill:none" points="
  522.331,375.869 522.331,211.811 
  "/>
<polyline clip-path="url(#clip3705)" style="stroke:#000000; stroke-width:0.5; stroke-opacity:0.1; fill:none" points="
  580.315,375.869 580.315,211.811 
  "/>
<polyline clip-path="url(#clip3705)" style="stroke:#000000; stroke-width:0.5; stroke-opacity:0.1; fill:none" points="
  349.538,339.306 580.315,339.306 
  "/>
<polyline clip-path="url(#clip3705)" style="stroke:#000000; stroke-width:0.5; stroke-opacity:0.1; fill:none" points="
  349.538,300.687 580.315,300.687 
  "/>
<polyline clip-path="url(#clip3705)" style="stroke:#000000; stroke-width:0.5; stroke-opacity:0.1; fill:none" points="
  349.538,262.067 580.315,262.067 
  "/>
<polyline clip-path="url(#clip3705)" style="stroke:#000000; stroke-width:0.5; stroke-opacity:0.1; fill:none" points="
  349.538,223.448 580.315,223.448 
  "/>
<polyline clip-path="url(#clip3700)" style="stroke:#000000; stroke-width:1; stroke-opacity:1; fill:none" points="
  349.538,375.869 580.315,375.869 
  "/>
<polyline clip-path="url(#clip3700)" style="stroke:#000000; stroke-width:1; stroke-opacity:1; fill:none" points="
  349.538,375.869 349.538,211.811 
  "/>
<polyline clip-path="url(#clip3700)" style="stroke:#000000; stroke-width:1; stroke-opacity:1; fill:none" points="
  406.362,375.869 406.362,373.408 
  "/>
<polyline clip-path="url(#clip3700)" style="stroke:#000000; stroke-width:1; stroke-opacity:1; fill:none" points="
  464.347,375.869 464.347,373.408 
  "/>
<polyline clip-path="url(#clip3700)" style="stroke:#000000; stroke-width:1; stroke-opacity:1; fill:none" points="
  522.331,375.869 522.331,373.408 
  "/>
<polyline clip-path="url(#clip3700)" style="stroke:#000000; stroke-width:1; stroke-opacity:1; fill:none" points="
  580.315,375.869 580.315,373.408 
  "/>
<polyline clip-path="url(#clip3700)" style="stroke:#000000; stroke-width:1; stroke-opacity:1; fill:none" points="
  349.538,339.306 353,339.306 
  "/>
<polyline clip-path="url(#clip3700)" style="stroke:#000000; stroke-width:1; stroke-opacity:1; fill:none" points="
  349.538,300.687 353,300.687 
  "/>
<polyline clip-path="url(#clip3700)" style="stroke:#000000; stroke-width:1; stroke-opacity:1; fill:none" points="
  349.538,262.067 353,262.067 
  "/>
<polyline clip-path="url(#clip3700)" style="stroke:#000000; stroke-width:1; stroke-opacity:1; fill:none" points="
  349.538,223.448 353,223.448 
  "/>
<g clip-path="url(#clip3700)">
<text style="fill:#000000; fill-opacity:1; font-family:Arial,Helvetica Neue,Helvetica,sans-serif; font-size:12; text-anchor:middle;" transform="rotate(0, 406.362, 389.669)" x="406.362" y="389.669">0.5</text>
</g>
<g clip-path="url(#clip3700)">
<text style="fill:#000000; fill-opacity:1; font-family:Arial,Helvetica Neue,Helvetica,sans-serif; font-size:12; text-anchor:middle;" transform="rotate(0, 464.347, 389.669)" x="464.347" y="389.669">1.0</text>
</g>
<g clip-path="url(#clip3700)">
<text style="fill:#000000; fill-opacity:1; font-family:Arial,Helvetica Neue,Helvetica,sans-serif; font-size:12; text-anchor:middle;" transform="rotate(0, 522.331, 389.669)" x="522.331" y="389.669">1.5</text>
</g>
<g clip-path="url(#clip3700)">
<text style="fill:#000000; fill-opacity:1; font-family:Arial,Helvetica Neue,Helvetica,sans-serif; font-size:12; text-anchor:middle;" transform="rotate(0, 580.315, 389.669)" x="580.315" y="389.669">2.0</text>
</g>
<g clip-path="url(#clip3700)">
<text style="fill:#000000; fill-opacity:1; font-family:Arial,Helvetica Neue,Helvetica,sans-serif; font-size:12; text-anchor:end;" transform="rotate(0, 343.538, 343.806)" x="343.538" y="343.806">-0.002</text>
</g>
<g clip-path="url(#clip3700)">
<text style="fill:#000000; fill-opacity:1; font-family:Arial,Helvetica Neue,Helvetica,sans-serif; font-size:12; text-anchor:end;" transform="rotate(0, 343.538, 305.187)" x="343.538" y="305.187">0.000</text>
</g>
<g clip-path="url(#clip3700)">
<text style="fill:#000000; fill-opacity:1; font-family:Arial,Helvetica Neue,Helvetica,sans-serif; font-size:12; text-anchor:end;" transform="rotate(0, 343.538, 266.567)" x="343.538" y="266.567">0.002</text>
</g>
<g clip-path="url(#clip3700)">
<text style="fill:#000000; fill-opacity:1; font-family:Arial,Helvetica Neue,Helvetica,sans-serif; font-size:12; text-anchor:end;" transform="rotate(0, 343.538, 227.948)" x="343.538" y="227.948">0.004</text>
</g>
<polyline clip-path="url(#clip3705)" style="stroke:#009af9; stroke-width:1; stroke-opacity:1; fill:none" points="
  349.538,282.532 351.087,332.185 352.636,274.718 354.184,262.857 355.733,287.837 357.282,292.546 358.831,281.654 360.38,258.226 361.929,259.464 363.477,289.254 
  365.026,328.923 366.575,332.547 368.124,269.743 369.673,269.117 371.222,328.721 372.77,309.46 374.319,252.9 375.868,278.23 377.417,313.098 378.966,314.271 
  380.515,342.872 382.064,288.306 383.612,285.888 385.161,344.585 386.71,274.976 388.259,306.521 389.808,283.226 391.357,322.144 392.905,318.386 394.454,282.744 
  396.003,317.536 397.552,230.475 399.101,368.151 400.65,288.682 402.198,319.577 403.747,260.748 405.296,346.19 406.845,268.455 408.394,302.305 409.943,271.279 
  411.491,287.029 413.04,269.549 414.589,317.626 416.138,263.558 417.687,363.443 419.236,286.964 420.785,344.817 422.333,269.487 423.882,316.577 425.431,242.333 
  426.98,341.519 428.529,307.953 430.078,319.231 431.626,302.47 433.175,293.836 434.724,327.002 436.273,265.487 437.822,289.352 439.371,234.322 440.919,346.672 
  442.468,288.089 444.017,311.524 445.566,247.357 447.115,273.864 448.664,351.542 450.212,284.26 451.761,327.441 453.31,260.865 454.859,298.351 456.408,346.92 
  457.957,281.355 459.505,358.014 461.054,313.242 462.603,309.245 464.152,329.986 465.701,265.979 467.25,351.729 468.799,288.307 470.347,307.777 471.896,308.165 
  473.445,252.39 474.994,318.316 476.543,256.271 478.092,294.997 479.64,296.813 481.189,235.541 482.738,333.859 484.287,355.462 485.836,294.928 487.385,322.789 
  488.933,262.727 490.482,304.808 492.031,360.972 493.58,301.594 495.129,325.425 496.678,266.487 498.226,266.555 499.775,361.015 501.324,332.073 502.873,291.034 
  504.422,315.494 505.971,257.801 507.52,312.556 509.068,315.164 510.617,258.059 512.166,293.683 513.715,236.956 515.264,256.2 516.813,335.777 518.361,279.6 
  519.91,270.382 521.459,360.498 523.008,320.284 524.557,281.996 526.106,301.261 527.654,246.126 529.203,291.134 530.752,302.435 532.301,247.792 533.85,286.981 
  535.399,232.659 536.947,215.125 538.496,302.316 540.045,363.398 541.594,309.695 543.143,304.517 544.692,351.233 546.24,297.976 547.789,304.555 549.338,315.12 
  550.887,262.294 552.436,302.498 553.985,316.59 555.534,264.186 557.082,298.41 558.631,263.809 560.18,211.811 561.729,292.352 563.278,375.869 564.827,346.801 
  566.375,295.327 567.924,360.507 569.473,309.287 571.022,274.552 572.571,356.462 574.12,305.616 575.668,262.918 577.217,344.612 578.766,372.844 580.315,322.478 
  
  "/>
<polygon clip-path="url(#clip3700)" points="
442.81,339.869 562.315,339.869 562.315,309.629 442.81,309.629 
  " fill="#ffffff" fill-opacity="1"/>
<polyline clip-path="url(#clip3700)" style="stroke:#000000; stroke-width:1; stroke-opacity:1; fill:none" points="
  442.81,339.869 562.315,339.869 562.315,309.629 442.81,309.629 442.81,339.869 
  "/>
<polyline clip-path="url(#clip3700)" style="stroke:#009af9; stroke-width:1; stroke-opacity:1; fill:none" points="
  448.81,324.749 484.81,324.749 
  "/>
<g clip-path="url(#clip3700)">
<text style="fill:#000000; fill-opacity:1; font-family:Arial,Helvetica Neue,Helvetica,sans-serif; font-size:12; text-anchor:start;" transform="rotate(0, 490.81, 329.249)" x="490.81" y="329.249">policy error</text>
</g>
</svg>
