<?xml version="1.0" encoding="utf-8"?>
<svg xmlns="http://www.w3.org/2000/svg" xmlns:xlink="http://www.w3.org/1999/xlink" width="600" height="400" viewBox="0 0 600 400">
<defs>
  <clipPath id="clip3900">
    <rect x="0" y="0" width="600" height="400"/>
  </clipPath>
</defs>
<polygon clip-path="url(#clip3900)" points="
0,400 600,400 600,0 0,0 
  " fill="#ffffff" fill-opacity="1"/>
<defs>
  <clipPath id="clip3901">
    <rect x="120" y="0" width="421" height="400"/>
  </clipPath>
</defs>
<polygon clip-path="url(#clip3900)" points="
32.4745,375.869 263.42,375.869 263.42,11.811 32.4745,11.811 
  " fill="#ffffff" fill-opacity="1"/>
<defs>
  <clipPath id="clip3902">
    <rect x="32" y="11" width="232" height="365"/>
  </clipPath>
</defs>
<polyline clip-path="url(#clip3902)" style="stroke:#000000; stroke-width:0.5; stroke-opacity:0.1; fill:none" points="
  89.3405,375.869 89.3405,11.811 
  "/>
<polyline clip-path="url(#clip3902)" style="stroke:#000000; stroke-width:0.5; stroke-opacity:0.1; fill:none" points="
  147.367,375.869 147.367,11.811 
  "/>
<polyline clip-path="url(#clip3902)" style="stroke:#000000; stroke-width:0.5; stroke-opacity:0.1; fill:none" points="
  205.394,375.869 205.394,11.811 
  "/>
<polyline clip-path="url(#clip3902)" style="stroke:#000000; stroke-width:0.5; stroke-opacity:0.1; fill:none" points="
  263.42,375.869 263.42,11.811 
  "/>
<polyline clip-path="url(#clip3902)" style="stroke:#000000; stroke-width:0.5; stroke-opacity:0.1; fill:none" points="
  32.4745,325.183 263.42,325.183 
  "/>
<polyline clip-path="url(#clip3902)" style="stroke:#000000; stroke-width:0.5; stroke-opacity:0.1; fill:none" points="
  32.4745,262.533 263.42,262.533 
  "/>
<polyline clip-path="url(#clip3902)" style="stroke:#000000; stroke-width:0.5; stroke-opacity:0.1; fill:none" points="
  32.4745,199.882 263.42,199.882 
  "/>
<polyline clip-path="url(#clip3902)" style="stroke:#000000; stroke-width:0.5; stroke-opacity:0.1; fill:none" points="
  32.4745,137.232 263.42,137.232 
  "/>
<polyline clip-path="url(#clip3902)" style="stroke:#000000; stroke-width:0.5; stroke-opacity:0.1; fill:none" points="
  32.4745,74.5819 263.42,74.5819 
  "/>
<polyline clip-path="url(#clip3902)" style="stroke:#000000; stroke-width:0.5; stroke-opacity:0.1; fill:none" points="
  32.4745,11.9316 263.42,11.9316 
  "/>
<polyline clip-path="url(#clip3900)" style="stroke:#000000; stroke-width:1; stroke-opacity:1; fill:none" points="
  32.4745,375.869 263.42,375.869 
  "/>
<polyline clip-path="url(#clip3900)" style="stroke:#000000; stroke-width:1; stroke-opacity:1; fill:none" points="
  32.4745,375.869 32.4745,11.811 
  "/>
<polyline clip-path="url(#clip3900)" style="stroke:#000000; stroke-width:1; stroke-opacity:1; fill:none" points="
  89.3405,375.869 89.3405,370.408 
  "/>
<polyline clip-path="url(#clip3900)" style="stroke:#000000; stroke-width:1; stroke-opacity:1; fill:none" points="
  147.367,375.869 147.367,370.408 
  "/>
<polyline clip-path="url(#clip3900)" style="stroke:#000000; stroke-width:1; stroke-opacity:1; fill:none" points="
  205.394,375.869 205.394,370.408 
  "/>
<polyline clip-path="url(#clip3900)" style="stroke:#000000; stroke-width:1; stroke-opacity:1; fill:none" points="
  263.42,375.869 263.42,370.408 
  "/>
<polyline clip-path="url(#clip3900)" style="stroke:#000000; stroke-width:1; stroke-opacity:1; fill:none" points="
  32.4745,325.183 35.9387,325.183 
  "/>
<polyline clip-path="url(#clip3900)" style="stroke:#000000; stroke-width:1; stroke-opacity:1; fill:none" points="
  32.4745,262.533 35.9387,262.533 
  "/>
<polyline clip-path="url(#clip3900)" style="stroke:#000000; stroke-width:1; stroke-opacity:1; fill:none" points="
  32.4745,199.882 35.9387,199.882 
  "/>
<polyline clip-path="url(#clip3900)" style="stroke:#000000; stroke-width:1; stroke-opacity:1; fill:none" points="
  32.4745,137.232 35.9387,137.232 
  "/>
<polyline clip-path="url(#clip3900)" style="stroke:#000000; stroke-width:1; stroke-opacity:1; fill:none" points="
  32.4745,74.5819 35.9387,74.5819 
  "/>
<polyline clip-path="url(#clip3900)" style="stroke:#000000; stroke-width:1; stroke-opacity:1; fill:none" points="
  32.4745,11.9316 35.9387,11.9316 
  "/>
<g clip-path="url(#clip3900)">
<text style="fill:#000000; fill-opacity:1; font-family:Arial,Helvetica Neue,Helvetica,sans-serif; font-size:12; text-anchor:middle;" transform="rotate(0, 89.3405, 389.669)" x="89.3405" y="389.669">0.5</text>
</g>
<g clip-path="url(#clip3900)">
<text style="fill:#000000; fill-opacity:1; font-family:Arial,Helvetica Neue,Helvetica,sans-serif; font-size:12; text-anchor:middle;" transform="rotate(0, 147.367, 389.669)" x="147.367" y="389.669">1.0</text>
</g>
<g clip-path="url(#clip3900)">
<text style="fill:#000000; fill-opacity:1; font-family:Arial,Helvetica Neue,Helvetica,sans-serif; font-size:12; text-anchor:middle;" transform="rotate(0, 205.394, 389.669)" x="205.394" y="389.669">1.5</text>
</g>
<g clip-path="url(#clip3900)">
<text style="fill:#000000; fill-opacity:1; font-family:Arial,Helvetica Neue,Helvetica,sans-serif; font-size:12; text-anchor:middle;" transform="rotate(0, 263.42, 389.669)" x="263.42" y="389.669">2.0</text>
</g>
<g clip-path="url(#clip3900)">
<text style="fill:#000000; fill-opacity:1; font-family:Arial,Helvetica Neue,Helvetica,sans-serif; font-size:12; text-anchor:end;" transform="rotate(0, 26.4745, 329.683)" x="26.4745" y="329.683">0.1</text>
</g>
<g clip-path="url(#clip3900)">
<text style="fill:#000000; fill-opacity:1; font-family:Arial,Helvetica Neue,Helvetica,sans-serif; font-size:12; text-anchor:end;" transform="rotate(0, 26.4745, 267.033)" x="26.4745" y="267.033">0.2</text>
</g>
<g clip-path="url(#clip3900)">
<text style="fill:#000000; fill-opacity:1; font-family:Arial,Helvetica Neue,Helvetica,sans-serif; font-size:12; text-anchor:end;" transform="rotate(0, 26.4745, 204.382)" x="26.4745" y="204.382">0.3</text>
</g>
<g clip-path="url(#clip3900)">
<text style="fill:#000000; fill-opacity:1; font-family:Arial,Helvetica Neue,Helvetica,sans-serif; font-size:12; text-anchor:end;" transform="rotate(0, 26.4745, 141.732)" x="26.4745" y="141.732">0.4</text>
</g>
<g clip-path="url(#clip3900)">
<text style="fill:#000000; fill-opacity:1; font-family:Arial,Helvetica Neue,Helvetica,sans-serif; font-size:12; text-anchor:end;" transform="rotate(0, 26.4745, 79.0819)" x="26.4745" y="79.0819">0.5</text>
</g>
<g clip-path="url(#clip3900)">
<text style="fill:#000000; fill-opacity:1; font-family:Arial,Helvetica Neue,Helvetica,sans-serif; font-size:12; text-anchor:end;" transform="rotate(0, 26.4745, 16.4316)" x="26.4745" y="16.4316">0.6</text>
</g>
<polyline clip-path="url(#clip3902)" style="stroke:#009af9; stroke-width:1; stroke-opacity:1; fill:none" points="
  32.4745,375.869 34.0245,367.009 35.5744,359.883 37.1244,353.625 38.6744,347.936 40.2243,342.658 41.7743,337.696 43.3243,332.986 44.8743,328.483 46.4242,324.157 
  47.9742,319.983 49.5242,315.941 51.0741,312.02 52.6241,308.207 54.1741,304.488 55.724,300.854 57.274,297.306 58.824,293.827 60.374,290.411 61.9239,287.07 
  63.4739,283.783 65.0239,280.547 66.5738,277.368 68.1238,274.233 69.6738,271.148 71.2237,268.105 72.7737,265.099 74.3237,262.139 75.8737,259.211 77.4236,256.323 
  78.9736,253.464 80.5236,250.639 82.0735,247.845 83.6235,245.082 85.1735,242.347 86.7234,239.637 88.2734,236.957 89.8234,234.3 91.3734,231.67 92.9233,229.06 
  94.4733,226.476 96.0233,223.911 97.5732,221.371 99.1232,218.848 100.673,216.349 102.223,213.867 103.773,211.405 105.323,208.961 106.873,206.535 108.423,204.125 
  109.973,201.732 111.523,199.358 113.073,196.998 114.623,194.655 116.173,192.324 117.723,190.013 119.273,187.713 120.823,185.428 122.373,183.156 123.923,180.897 
  125.473,178.654 127.023,176.42 128.573,174.202 130.123,171.993 131.673,169.8 133.223,167.617 134.773,165.445 136.322,163.286 137.872,161.135 139.422,158.999 
  140.972,156.871 142.522,154.755 144.072,152.649 145.622,150.55 147.172,148.466 148.722,146.389 150.272,144.322 151.822,142.265 153.372,140.215 154.922,138.177 
  156.472,136.146 158.022,134.124 159.572,132.111 161.122,130.105 162.672,128.11 164.222,126.121 165.772,124.141 167.322,122.171 168.872,120.206 170.422,118.25 
  171.972,116.301 173.522,114.358 175.072,112.427 176.622,110.5 178.172,108.58 179.722,106.668 181.272,104.761 182.822,102.864 184.372,100.973 185.922,99.0878 
  187.471,97.2105 189.021,95.3384 190.571,93.4718 192.121,91.6142 193.671,89.7612 195.221,87.9141 196.771,86.0742 198.321,84.2387 199.871,82.41 201.421,80.5877 
  202.971,78.7698 204.521,76.9593 206.071,75.1547 207.621,73.3542 209.171,71.5603 210.721,69.7713 212.271,67.9862 213.821,66.2094 215.371,64.437 216.921,62.6686 
  218.471,60.9067 220.021,59.1487 221.571,57.3946 223.121,55.6489 224.671,53.9069 226.221,52.1686 227.771,50.4372 229.321,48.7093 230.871,46.9851 232.421,45.2676 
  233.971,43.5536 235.521,41.843 237.071,40.1396 238.621,38.4395 240.17,36.7426 241.72,35.0516 243.27,33.3638 244.82,31.6793 246.37,30.0023 247.92,28.3289 
  249.47,26.6587 251.02,24.9935 252.57,23.3319 254.12,21.6733 255.67,20.02 257.22,18.3708 258.77,16.7245 260.32,15.0828 261.87,13.4455 263.42,11.811 
  
  "/>
<polygon clip-path="url(#clip3900)" points="
154.663,339.869 245.42,339.869 245.42,309.629 154.663,309.629 
  " fill="#ffffff" fill-opacity="1"/>
<polyline clip-path="url(#clip3900)" style="stroke:#000000; stroke-width:1; stroke-opacity:1; fill:none" points="
  154.663,339.869 245.42,339.869 245.42,309.629 154.663,309.629 154.663,339.869 
  "/>
<polyline clip-path="url(#clip3900)" style="stroke:#009af9; stroke-width:1; stroke-opacity:1; fill:none" points="
  160.663,324.749 196.663,324.749 
  "/>
<g clip-path="url(#clip3900)">
<text style="fill:#000000; fill-opacity:1; font-family:Arial,Helvetica Neue,Helvetica,sans-serif; font-size:12; text-anchor:start;" transform="rotate(0, 202.663, 329.249)" x="202.663" y="329.249">policy</text>
</g>
<polygon clip-path="url(#clip3900)" points="
349.369,375.869 580.315,375.869 580.315,11.811 349.369,11.811 
  " fill="#ffffff" fill-opacity="1"/>
<defs>
  <clipPath id="clip3903">
    <rect x="349" y="11" width="232" height="365"/>
  </clipPath>
</defs>
<polyline clip-path="url(#clip3903)" style="stroke:#000000; stroke-width:0.5; stroke-opacity:0.1; fill:none" points="
  406.235,375.869 406.235,11.811 
  "/>
<polyline clip-path="url(#clip3903)" style="stroke:#000000; stroke-width:0.5; stroke-opacity:0.1; fill:none" points="
  464.262,375.869 464.262,11.811 
  "/>
<polyline clip-path="url(#clip3903)" style="stroke:#000000; stroke-width:0.5; stroke-opacity:0.1; fill:none" points="
  522.288,375.869 522.288,11.811 
  "/>
<polyline clip-path="url(#clip3903)" style="stroke:#000000; stroke-width:0.5; stroke-opacity:0.1; fill:none" points="
  580.315,375.869 580.315,11.811 
  "/>
<polyline clip-path="url(#clip3903)" style="stroke:#000000; stroke-width:0.5; stroke-opacity:0.1; fill:none" points="
  349.369,359.876 580.315,359.876 
  "/>
<polyline clip-path="url(#clip3903)" style="stroke:#000000; stroke-width:0.5; stroke-opacity:0.1; fill:none" points="
  349.369,306.903 580.315,306.903 
  "/>
<polyline clip-path="url(#clip3903)" style="stroke:#000000; stroke-width:0.5; stroke-opacity:0.1; fill:none" points="
  349.369,253.929 580.315,253.929 
  "/>
<polyline clip-path="url(#clip3903)" style="stroke:#000000; stroke-width:0.5; stroke-opacity:0.1; fill:none" points="
  349.369,200.956 580.315,200.956 
  "/>
<polyline clip-path="url(#clip3903)" style="stroke:#000000; stroke-width:0.5; stroke-opacity:0.1; fill:none" points="
  349.369,147.982 580.315,147.982 
  "/>
<polyline clip-path="url(#clip3903)" style="stroke:#000000; stroke-width:0.5; stroke-opacity:0.1; fill:none" points="
  349.369,95.0086 580.315,95.0086 
  "/>
<polyline clip-path="url(#clip3903)" style="stroke:#000000; stroke-width:0.5; stroke-opacity:0.1; fill:none" points="
  349.369,42.0351 580.315,42.0351 
  "/>
<polyline clip-path="url(#clip3900)" style="stroke:#000000; stroke-width:1; stroke-opacity:1; fill:none" points="
  349.369,375.869 580.315,375.869 
  "/>
<polyline clip-path="url(#clip3900)" style="stroke:#000000; stroke-width:1; stroke-opacity:1; fill:none" points="
  349.369,375.869 349.369,11.811 
  "/>
<polyline clip-path="url(#clip3900)" style="stroke:#000000; stroke-width:1; stroke-opacity:1; fill:none" points="
  406.235,375.869 406.235,370.408 
  "/>
<polyline clip-path="url(#clip3900)" style="stroke:#000000; stroke-width:1; stroke-opacity:1; fill:none" points="
  464.262,375.869 464.262,370.408 
  "/>
<polyline clip-path="url(#clip3900)" style="stroke:#000000; stroke-width:1; stroke-opacity:1; fill:none" points="
  522.288,375.869 522.288,370.408 
  "/>
<polyline clip-path="url(#clip3900)" style="stroke:#000000; stroke-width:1; stroke-opacity:1; fill:none" points="
  580.315,375.869 580.315,370.408 
  "/>
<polyline clip-path="url(#clip3900)" style="stroke:#000000; stroke-width:1; stroke-opacity:1; fill:none" points="
  349.369,359.876 352.834,359.876 
  "/>
<polyline clip-path="url(#clip3900)" style="stroke:#000000; stroke-width:1; stroke-opacity:1; fill:none" points="
  349.369,306.903 352.834,306.903 
  "/>
<polyline clip-path="url(#clip3900)" style="stroke:#000000; stroke-width:1; stroke-opacity:1; fill:none" points="
  349.369,253.929 352.834,253.929 
  "/>
<polyline clip-path="url(#clip3900)" style="stroke:#000000; stroke-width:1; stroke-opacity:1; fill:none" points="
  349.369,200.956 352.834,200.956 
  "/>
<polyline clip-path="url(#clip3900)" style="stroke:#000000; stroke-width:1; stroke-opacity:1; fill:none" points="
  349.369,147.982 352.834,147.982 
  "/>
<polyline clip-path="url(#clip3900)" style="stroke:#000000; stroke-width:1; stroke-opacity:1; fill:none" points="
  349.369,95.0086 352.834,95.0086 
  "/>
<polyline clip-path="url(#clip3900)" style="stroke:#000000; stroke-width:1; stroke-opacity:1; fill:none" points="
  349.369,42.0351 352.834,42.0351 
  "/>
<g clip-path="url(#clip3900)">
<text style="fill:#000000; fill-opacity:1; font-family:Arial,Helvetica Neue,Helvetica,sans-serif; font-size:12; text-anchor:middle;" transform="rotate(0, 406.235, 389.669)" x="406.235" y="389.669">0.5</text>
</g>
<g clip-path="url(#clip3900)">
<text style="fill:#000000; fill-opacity:1; font-family:Arial,Helvetica Neue,Helvetica,sans-serif; font-size:12; text-anchor:middle;" transform="rotate(0, 464.262, 389.669)" x="464.262" y="389.669">1.0</text>
</g>
<g clip-path="url(#clip3900)">
<text style="fill:#000000; fill-opacity:1; font-family:Arial,Helvetica Neue,Helvetica,sans-serif; font-size:12; text-anchor:middle;" transform="rotate(0, 522.288, 389.669)" x="522.288" y="389.669">1.5</text>
</g>
<g clip-path="url(#clip3900)">
<text style="fill:#000000; fill-opacity:1; font-family:Arial,Helvetica Neue,Helvetica,sans-serif; font-size:12; text-anchor:middle;" transform="rotate(0, 580.315, 389.669)" x="580.315" y="389.669">2.0</text>
</g>
<g clip-path="url(#clip3900)">
<text style="fill:#000000; fill-opacity:1; font-family:Arial,Helvetica Neue,Helvetica,sans-serif; font-size:12; text-anchor:end;" transform="rotate(0, 343.369, 364.376)" x="343.369" y="364.376">-0.00007</text>
</g>
<g clip-path="url(#clip3900)">
<text style="fill:#000000; fill-opacity:1; font-family:Arial,Helvetica Neue,Helvetica,sans-serif; font-size:12; text-anchor:end;" transform="rotate(0, 343.369, 311.403)" x="343.369" y="311.403">-0.00006</text>
</g>
<g clip-path="url(#clip3900)">
<text style="fill:#000000; fill-opacity:1; font-family:Arial,Helvetica Neue,Helvetica,sans-serif; font-size:12; text-anchor:end;" transform="rotate(0, 343.369, 258.429)" x="343.369" y="258.429">-0.00005</text>
</g>
<g clip-path="url(#clip3900)">
<text style="fill:#000000; fill-opacity:1; font-family:Arial,Helvetica Neue,Helvetica,sans-serif; font-size:12; text-anchor:end;" transform="rotate(0, 343.369, 205.456)" x="343.369" y="205.456">-0.00004</text>
</g>
<g clip-path="url(#clip3900)">
<text style="fill:#000000; fill-opacity:1; font-family:Arial,Helvetica Neue,Helvetica,sans-serif; font-size:12; text-anchor:end;" transform="rotate(0, 343.369, 152.482)" x="343.369" y="152.482">-0.00003</text>
</g>
<g clip-path="url(#clip3900)">
<text style="fill:#000000; fill-opacity:1; font-family:Arial,Helvetica Neue,Helvetica,sans-serif; font-size:12; text-anchor:end;" transform="rotate(0, 343.369, 99.5086)" x="343.369" y="99.5086">-0.00002</text>
</g>
<g clip-path="url(#clip3900)">
<text style="fill:#000000; fill-opacity:1; font-family:Arial,Helvetica Neue,Helvetica,sans-serif; font-size:12; text-anchor:end;" transform="rotate(0, 343.369, 46.5351)" x="343.369" y="46.5351">-0.00001</text>
</g>
<polyline clip-path="url(#clip3903)" style="stroke:#009af9; stroke-width:1; stroke-opacity:1; fill:none" points="
  349.369,375.869 350.919,164.355 352.469,145.306 354.019,79.3276 355.569,48.0889 357.119,45.4449 358.669,59.6636 360.219,77.1342 361.769,85.4901 363.319,87.9298 
  364.869,81.4612 366.419,58.9352 367.969,56.568 369.519,73.1482 371.069,67.9659 372.619,42.819 374.169,69.943 375.719,61.5577 377.269,11.811 378.819,56.5086 
  380.369,67.5079 381.919,45.575 383.469,67.1497 385.019,47.8755 386.569,61.7484 388.119,66.5873 389.669,37.4991 391.219,65.1601 392.769,46.5683 394.319,69.3979 
  395.869,56.1873 397.418,51.7564 398.968,49.9311 400.518,57.0435 402.068,62.6467 403.618,46.3488 405.168,60.7052 406.718,56.5072 408.268,67.8726 409.818,49.4524 
  411.368,60.5298 412.918,46.2096 414.468,57.4545 416.018,46.4547 417.568,57.3842 419.118,53.1821 420.668,60.546 422.218,60.3185 423.768,58.1507 425.318,55.3547 
  426.868,46.4971 428.418,60.4885 429.968,50.29 431.518,64.0649 433.068,44.2764 434.618,65.7384 436.168,59.7641 437.718,63.9841 439.268,56.0558 440.818,50.3726 
  442.368,61.3194 443.918,49.4121 445.468,60.1756 447.018,43.707 448.568,54.5822 450.117,56.7232 451.667,53.4893 453.217,57.6575 454.767,37.2769 456.317,57.2011 
  457.867,54.8381 459.417,57.238 460.967,60.0363 462.517,45.4369 464.067,62.2972 465.617,57.6485 467.167,61.5041 468.717,64.9685 470.267,51.657 471.817,64.905 
  473.367,58.4463 474.917,58.257 476.467,62.4266 478.017,47.8549 479.567,58.0466 481.117,52.6027 482.667,47.5867 484.217,60.6222 485.767,56.3366 487.317,61.0659 
  488.867,59.843 490.417,44.3875 491.967,61.887 493.517,63.3104 495.067,60.0847 496.617,61.3921 498.167,47.3103 499.717,53.1586 501.266,63.6876 502.816,59.449 
  504.366,68.6266 505.916,66.5536 507.466,55.8323 509.016,67.9114 510.566,66.1742 512.116,62.2197 513.666,67.4007 515.216,59.2912 516.766,57.4349 518.316,60.9366 
  519.866,51.6367 521.416,57.2824 522.966,64.2406 524.516,58.8529 526.066,63.298 527.616,61.4131 529.166,47.6172 530.716,59.1898 532.266,63.4953 533.816,56.2907 
  535.366,61.6778 536.916,56.5311 538.466,41.1233 540.016,55.1777 541.566,58.3403 543.116,52.1 544.666,62.901 546.216,63.1582 547.766,54.3967 549.316,63.295 
  550.866,61.9781 552.415,51.3411 553.965,62.6382 555.515,64.0293 557.065,55.6189 558.615,58.9189 560.165,53.1407 561.715,37.8538 563.265,50.7876 564.815,58.4598 
  566.365,56.8915 567.915,63.4341 569.465,65.0546 571.015,57.6983 572.565,61.515 574.115,65.7227 575.665,61.2009 577.215,62.8072 578.765,68.3771 580.315,65.4537 
  
  "/>
<polygon clip-path="url(#clip3900)" points="
476.912,339.869 562.315,339.869 562.315,309.629 476.912,309.629 
  " fill="#ffffff" fill-opacity="1"/>
<polyline clip-path="url(#clip3900)" style="stroke:#000000; stroke-width:1; stroke-opacity:1; fill:none" points="
  476.912,339.869 562.315,339.869 562.315,309.629 476.912,309.629 476.912,339.869 
  "/>
<polyline clip-path="url(#clip3900)" style="stroke:#009af9; stroke-width:1; stroke-opacity:1; fill:none" points="
  482.912,324.749 518.912,324.749 
  "/>
<g clip-path="url(#clip3900)">
<text style="fill:#000000; fill-opacity:1; font-family:Arial,Helvetica Neue,Helvetica,sans-serif; font-size:12; text-anchor:start;" transform="rotate(0, 524.912, 329.249)" x="524.912" y="329.249">error</text>
</g>
</svg>
